# Blender 5.0.0
# www.blender.org
mtllib 3dtowertest.mtl
o Plane
v -0.814128 0.367753 -0.000000
v -0.318311 0.728540 0.000000
v -0.307303 1.372145 0.000000
v -0.310919 1.440900 0.000000
v -0.396516 0.721618 0.000000
v 0.819134 -0.332417 -0.000000
v -0.397689 1.370542 0.000000
v -0.280050 0.665198 -0.000000
v -0.814128 -0.332417 -0.000000
v -0.269478 0.521849 -0.000000
v -0.216968 0.474576 -0.000000
v -0.169709 0.470943 -0.000000
v -0.164362 0.370992 -0.000000
v -0.296257 0.342171 -0.000000
v -0.346536 0.307037 -0.000000
v -0.428212 0.313324 -0.000000
v -0.527084 0.320932 -0.000000
v -0.599410 0.391466 -0.000000
v 0.819134 0.396514 -0.000000
v 0.290752 1.440900 0.000000
v 0.316916 1.388319 0.000000
v 0.393799 1.382404 0.000000
v 0.410630 0.788817 0.000000
v 0.384803 0.730483 0.000000
v 0.306355 0.719278 0.000000
v 0.270670 0.644398 -0.000000
v 0.263381 0.545664 -0.000000
v 0.250048 0.481873 -0.000000
v 0.176243 0.418365 -0.000000
v 0.157928 0.346194 -0.000000
v 0.266310 0.350840 -0.000000
v 0.393000 0.310790 -0.000000
v 0.493746 0.329003 -0.000000
v 0.607019 0.402515 -0.000000
v -0.814128 0.367753 -0.530000
v -0.318311 0.728540 -0.530000
v -0.307303 1.372145 -0.530000
v -0.310919 1.440900 -0.530000
v -0.396516 0.721618 -0.530000
v 0.819134 -0.332417 -0.530000
v -0.397689 1.370542 -0.530000
v -0.280050 0.665198 -0.530000
v -0.814128 -0.332417 -0.530000
v -0.269478 0.521849 -0.530000
v -0.216968 0.474576 -0.530000
v -0.169709 0.470943 -0.530000
v -0.164362 0.370992 -0.530000
v -0.296257 0.342171 -0.530000
v -0.346536 0.307037 -0.530000
v -0.428212 0.313324 -0.530000
v -0.527084 0.320932 -0.530000
v -0.599410 0.391466 -0.530000
v 0.819134 0.396514 -0.530000
v 0.290752 1.440900 -0.530000
v 0.316916 1.388319 -0.530000
v 0.393799 1.382404 -0.530000
v 0.410630 0.788817 -0.530000
v 0.384803 0.730483 -0.530000
v 0.306355 0.719278 -0.530000
v 0.270670 0.644398 -0.530000
v 0.263381 0.545664 -0.530000
v 0.250048 0.481873 -0.530000
v 0.176243 0.418365 -0.530000
v 0.157928 0.346194 -0.530000
v 0.266310 0.350840 -0.530000
v 0.393000 0.310790 -0.530000
v 0.493746 0.329003 -0.530000
v 0.607019 0.402515 -0.530000
vn -0.0000 -0.0000 1.0000
vn -0.0000 -0.0000 -1.0000
vn -1.0000 -0.0000 -0.0000
vn -0.8560 -0.5170 -0.0000
vn -0.9986 -0.0525 -0.0000
vn -0.9973 -0.0735 -0.0000
vn -0.0000 1.0000 -0.0000
vn -0.9986 -0.0534 -0.0000
vn 0.0882 -0.9961 -0.0000
vn -0.0000 -1.0000 -0.0000
vn -1.0000 -0.0018 -0.0000
vn -0.0177 0.9998 -0.0000
vn -0.0767 -0.9971 -0.0000
vn -0.6691 -0.7432 -0.0000
vn -0.2135 0.9769 -0.0000
vn -0.5728 0.8197 -0.0000
vn 0.0767 0.9971 -0.0000
vn 0.6982 0.7159 -0.0000
vn -0.1098 0.9940 -0.0000
vn 1.0000 -0.0000 -0.0000
vn 0.8953 0.4455 -0.0000
vn 0.9996 0.0283 -0.0000
vn 0.9144 -0.4048 -0.0000
vn 0.1414 -0.9900 -0.0000
vn 0.9027 -0.4302 -0.0000
vn 0.9973 -0.0736 -0.0000
vn 0.9788 -0.2046 -0.0000
vn 0.6522 -0.7580 -0.0000
vn 0.9693 -0.2460 -0.0000
vn -0.0428 0.9991 -0.0000
vn 0.3014 0.9535 -0.0000
vn -0.1779 0.9840 -0.0000
vn -0.5444 0.8388 -0.0000
vn 0.0283 0.9996 -0.0000
vt 0.092936 0.000000
vt 0.909567 0.000000
vt 0.909567 0.364466
vt 0.803509 0.367466
vt 0.746873 0.330710
vt 0.696500 0.321604
vt 0.633155 0.341629
vt 0.578964 0.339305
vt 0.588121 0.375391
vt 0.625024 0.407145
vt 0.631691 0.439041
vt 0.635335 0.488408
vt 0.653177 0.525848
vt 0.692402 0.531450
vt 0.705315 0.560617
vt 0.696900 0.857411
vt 0.658458 0.860368
vt 0.645376 0.886659
vt 0.344541 0.886659
vt 0.346348 0.852281
vt 0.301155 0.851479
vt 0.301742 0.527017
vt 0.340844 0.530479
vt 0.359975 0.498808
vt 0.365261 0.427133
vt 0.391516 0.403497
vt 0.415146 0.401680
vt 0.417819 0.351704
vt 0.351871 0.337294
vt 0.326732 0.319727
vt 0.285894 0.322870
vt 0.236458 0.326674
vt 0.200295 0.361941
vt 0.092936 0.350085
s 0
usemtl Tower.001
f 9/1/1 6/2/1 19/3/1 34/4/1 33/5/1 32/6/1 31/7/1 30/8/1 29/9/1 28/10/1 27/11/1 26/12/1 25/13/1 24/14/1 23/15/1 22/16/1 21/17/1 20/18/1 4/19/1 3/20/1 7/21/1 5/22/1 2/23/1 8/24/1 10/25/1 11/26/1 12/27/1 13/28/1 14/29/1 15/30/1 16/31/1 17/32/1 18/33/1 1/34/1
f 43/1/2 35/34/2 52/33/2 51/32/2 50/31/2 49/30/2 48/29/2 47/28/2 46/27/2 45/26/2 44/25/2 42/24/2 36/23/2 39/22/2 41/21/2 37/20/2 38/19/2 54/18/2 55/17/2 56/16/2 57/15/2 58/14/2 59/13/2 60/12/2 61/11/2 62/10/2 63/9/2 64/8/2 65/7/2 66/6/2 67/5/2 68/4/2 53/3/2 40/2/2
f 9/1/3 1/34/3 35/34/3 43/1/3
f 8/24/4 2/23/4 36/23/4 42/24/4
f 3/20/5 4/19/5 38/19/5 37/20/5
f 10/25/6 8/24/6 42/24/6 44/25/6
f 4/19/7 20/18/7 54/18/7 38/19/7
f 13/28/8 12/27/8 46/27/8 47/28/8
f 2/23/9 5/22/9 39/22/9 36/23/9
f 6/2/10 9/1/10 43/1/10 40/2/10
f 5/22/11 7/21/11 41/21/11 39/22/11
f 7/21/12 3/20/12 37/20/12 41/21/12
f 12/27/13 11/26/13 45/26/13 46/27/13
f 11/26/14 10/25/14 44/25/14 45/26/14
f 14/29/15 13/28/15 47/28/15 48/29/15
f 15/30/16 14/29/16 48/29/16 49/30/16
f 16/31/17 15/30/17 49/30/17 50/31/17
f 17/32/17 16/31/17 50/31/17 51/32/17
f 18/33/18 17/32/18 51/32/18 52/33/18
f 1/34/19 18/33/19 52/33/19 35/34/19
f 19/3/20 6/2/20 40/2/20 53/3/20
f 20/18/21 21/17/21 55/17/21 54/18/21
f 21/17/17 22/16/17 56/16/17 55/17/17
f 22/16/22 23/15/22 57/15/22 56/16/22
f 23/15/23 24/14/23 58/14/23 57/15/23
f 24/14/24 25/13/24 59/13/24 58/14/24
f 25/13/25 26/12/25 60/12/25 59/13/25
f 26/12/26 27/11/26 61/11/26 60/12/26
f 27/11/27 28/10/27 62/10/27 61/11/27
f 28/10/28 29/9/28 63/9/28 62/10/28
f 29/9/29 30/8/29 64/8/29 63/9/29
f 30/8/30 31/7/30 65/7/30 64/8/30
f 31/7/31 32/6/31 66/6/31 65/7/31
f 32/6/32 33/5/32 67/5/32 66/6/32
f 33/5/33 34/4/33 68/4/33 67/5/33
f 34/4/34 19/3/34 53/3/34 68/4/34
