# MagicaVoxel @ Ephtracy

# group
o 

# material
mtllib tower base.mtl
usemtl palette

# normals
vn -1 0 0
vn 1 0 0
vn 0 0 1
vn 0 0 -1
vn 0 -1 0
vn 0 1 0

# texcoords
vt 0.478516 0.5
vt 0.505859 0.5
vt 0.716797 0.5
vt 0.876953 0.5
vt 0.986328 0.5

# verts
v -2.5 0 3.2
v -2.5 0 3
v -2.5 0 2.7
v -2.5 0 2.5
v -2.5 0 -2.5
v -2.5 0 -2.7
v -2.5 0 -3
v -2.5 0 -3.2
v -2.5 0.1 3.1
v -2.5 0.1 3
v -2.5 0.1 2.7
v -2.5 0.1 2.5
v -2.5 0.1 -2.5
v -2.5 0.1 -2.7
v -2.5 0.1 -3
v -2.5 0.1 -3.1
v -2.5 0.4 3.2
v -2.5 0.4 3.1
v -2.5 0.4 3
v -2.5 0.4 2.7
v -2.5 0.4 2.5
v -2.5 0.4 -2.5
v -2.5 0.4 -2.7
v -2.5 0.4 -3
v -2.5 0.4 -3.1
v -2.5 0.4 -3.2
v -2.4 0.4 3.2
v -2.4 0.4 3.1
v -2.4 0.4 3
v -2.4 0.4 2.7
v -2.4 0.4 2.5
v -2.4 0.4 -2.5
v -2.4 0.4 -2.7
v -2.4 0.4 -3
v -2.4 0.4 -3.1
v -2.4 0.4 -3.2
v -2.4 0.5 3.2
v -2.4 0.5 3.1
v -2.4 0.5 3
v -2.4 0.5 2.7
v -2.4 0.5 2.5
v -2.4 0.5 -2.5
v -2.4 0.5 -2.7
v -2.4 0.5 -3
v -2.4 0.5 -3.1
v -2.4 0.5 -3.2
v -2.3 0 2.5
v -2.3 0 -2.5
v -2.3 0.1 2.5
v -2.3 0.1 -2.5
v -2.3 0.5 3.2
v -2.3 0.5 3.1
v -2.3 0.5 3
v -2.3 0.5 2.7
v -2.3 0.5 2.5
v -2.3 0.5 -2.5
v -2.3 0.5 -2.7
v -2.3 0.5 -3
v -2.3 0.5 -3.1
v -2.3 0.5 -3.2
v -2.3 0.6 3.2
v -2.3 0.6 3.1
v -2.3 0.6 3
v -2.3 0.6 2.7
v -2.3 0.6 2.5
v -2.3 0.6 -2.5
v -2.3 0.6 -2.7
v -2.3 0.6 -3
v -2.3 0.6 -3.1
v -2.3 0.6 -3.2
v -2.2 0 3
v -2.2 0 2.7
v -2.2 0 -2.7
v -2.2 0 -3
v -2.2 0.1 3
v -2.2 0.1 2.7
v -2.2 0.1 2.5
v -2.2 0.1 -2.5
v -2.2 0.1 -2.7
v -2.2 0.1 -3
v -2.2 0.6 3
v -2.2 0.6 2.7
v -2.2 0.6 2.5
v -2.2 0.6 -2.5
v -2.2 0.6 -2.7
v -2.2 0.6 -3
v -1.4 0.2 1.8
v -1.4 0.2 -1.7
v -1.4 0.3 1.8
v -1.4 0.3 -1.7
v -1.2 0.6 1.1
v -1.2 0.6 -1.2
v -1.2 0.7 1.2
v -1.2 0.7 1.1
v -1.2 0.7 -1.2
v -1.2 0.7 -1.3
v -1.2 0.8 0.6
v -1.2 0.8 -0.7
v -1.2 0.9 1.2
v -1.2 0.9 1.1
v -1.2 0.9 0.6
v -1.2 0.9 -0.7
v -1.2 0.9 -1.2
v -1.2 0.9 -1.3
v -1.1 0.6 1.2
v -1.1 0.6 1.1
v -1.1 0.6 -1.2
v -1.1 0.6 -1.3
v -1.1 0.7 1.2
v -1.1 0.7 1.1
v -1.1 0.7 -1.2
v -1.1 0.7 -1.3
v -0.8 0.8 0.4
v -0.8 0.8 -0.5
v -0.8 0.9 0.4
v -0.8 0.9 0.3
v -0.8 0.9 -0.4
v -0.8 0.9 -0.5
v -0.8 1 0.3
v -0.8 1 -0.4
v -0.7 0.8 0.6
v -0.7 0.8 0.4
v -0.7 0.8 -0.5
v -0.7 0.8 -0.7
v -0.7 0.9 0.7
v -0.7 0.9 0.6
v -0.7 0.9 0.5
v -0.7 0.9 0.4
v -0.7 0.9 0.3
v -0.7 0.9 -0.4
v -0.7 0.9 -0.5
v -0.7 0.9 -0.6
v -0.7 0.9 -0.7
v -0.7 0.9 -0.8
v -0.7 1 0.6
v -0.7 1 0.5
v -0.7 1 0.3
v -0.7 1 -0.4
v -0.7 1 -0.6
v -0.7 1 -0.7
v -0.7 1.1 0.7
v -0.7 1.1 0.6
v -0.7 1.1 -0.7
v -0.7 1.1 -0.8
v -0.4 0.8 0.8
v -0.4 0.8 0.7
v -0.4 0.8 -0.8
v -0.4 0.8 -0.9
v -0.4 0.9 0.8
v -0.4 0.9 0.7
v -0.4 0.9 -0.8
v -0.4 0.9 -0.9
v -0.4 1.1 0.7
v -0.4 1.1 0.6
v -0.4 1.1 -0.7
v -0.4 1.1 -0.8
v -0.4 2.7 0.7
v -0.4 2.7 0.6
v -0.4 2.7 -0.7
v -0.4 2.7 -0.8
v -0.3 0.9 0.8
v -0.3 0.9 0.7
v -0.3 0.9 -0.8
v -0.3 0.9 -0.9
v -0.3 1 0.8
v -0.3 1 0.7
v -0.3 1 -0.8
v -0.3 1 -0.9
v 0.9 0.8 1.2
v 0.9 0.8 0.8
v 0.9 0.8 0.7
v 0.9 0.8 -0.8
v 0.9 0.8 -0.9
v 0.9 0.8 -1.3
v 0.9 0.9 1.2
v 0.9 0.9 0.8
v 0.9 0.9 0.7
v 0.9 0.9 -0.8
v 0.9 0.9 -0.9
v 0.9 0.9 -1.3
v 1.6 0.2 3.2
v 1.6 0.2 2.8
v 1.6 0.2 -2.8
v 1.6 0.2 -3.1
v 1.6 0.2 -3.2
v 1.6 0.3 3.1
v 1.6 0.3 2.8
v 1.6 0.3 2.3
v 1.6 0.3 2.1
v 1.6 0.3 1.9
v 1.6 0.3 -1.8
v 1.6 0.3 -2.2
v 1.6 0.3 -2.4
v 1.6 0.3 -2.8
v 1.6 0.3 -3.1
v 1.6 0.4 -1.8
v 1.6 0.4 -2.2
v 1.6 0.4 -2.4
v 1.6 0.4 -2.8
v 1.6 0.4 -3.1
v 1.6 0.4 -3.2
v 1.6 0.5 3.2
v 1.6 0.5 3.1
v 1.6 0.5 2.8
v 1.6 0.5 2.3
v 1.6 0.5 2.1
v 1.6 0.5 1.9
v 1.7 0 3.2
v 1.7 0 3
v 1.7 0.1 3.2
v 1.7 0.1 3.1
v 1.7 0.1 3
v 1.7 0.2 1.9
v 1.7 0.2 1.8
v 1.7 0.3 1.9
v 1.7 0.3 1.8
v 1.7 0.4 -1.8
v 1.7 0.4 -2.2
v 1.7 0.4 -2.4
v 1.7 0.4 -2.8
v 1.7 0.4 -3.1
v 1.7 0.4 -3.2
v 1.7 0.5 3.2
v 1.7 0.5 3.1
v 1.7 0.5 2.8
v 1.7 0.5 2.3
v 1.7 0.5 2.1
v 1.7 0.5 1.9
v 1.7 0.6 3.2
v 1.7 0.6 3.1
v 1.7 0.6 2.8
v 1.7 0.6 2.3
v 1.7 0.6 2.1
v 1.7 0.6 1.9
v 1.7 0.6 -1.8
v 1.7 0.6 -2.2
v 1.7 0.6 -2.4
v 1.7 0.6 -2.8
v 1.7 0.6 -3.1
v 1.7 0.6 -3.2
v 1.8 0 3
v 1.8 0 -3.2
v 1.8 0.1 3
v 1.8 0.1 2.8
v 1.8 0.1 2.3
v 1.8 0.1 -2.4
v 1.8 0.1 -2.8
v 1.8 0.1 -3.1
v 1.8 0.1 -3.2
v 1.8 0.2 2.8
v 1.8 0.2 2.5
v 1.8 0.2 2.3
v 1.8 0.2 -2.4
v 1.8 0.2 -2.5
v 1.8 0.2 -2.8
v 1.8 0.3 2.8
v 1.8 0.3 2.5
v 1.8 0.3 -2.8
v 1.8 0.6 2.8
v 1.8 0.6 2.5
v 1.8 0.6 2.3
v 1.8 0.6 -2.4
v 1.8 0.6 -2.5
v 1.8 0.6 -2.8
v -1.8 0 3
v -1.8 0 -3.2
v -1.8 0.1 3
v -1.8 0.1 2.8
v -1.8 0.1 2.3
v -1.8 0.1 -2.4
v -1.8 0.1 -2.9
v -1.8 0.1 -3.1
v -1.8 0.1 -3.2
v -1.8 0.2 2.8
v -1.8 0.2 2.5
v -1.8 0.2 2.3
v -1.8 0.2 -2.4
v -1.8 0.2 -2.5
v -1.8 0.2 -2.9
v -1.8 0.3 2.8
v -1.8 0.3 -2.9
v -1.8 0.6 2.8
v -1.8 0.6 2.5
v -1.8 0.6 2.3
v -1.8 0.6 -2.4
v -1.8 0.6 -2.5
v -1.8 0.6 -2.9
v -1.7 0 3.2
v -1.7 0 3
v -1.7 0.1 3.2
v -1.7 0.1 3.1
v -1.7 0.1 3
v -1.7 0.4 2.3
v -1.7 0.4 2.1
v -1.7 0.4 1.9
v -1.7 0.4 -1.8
v -1.7 0.4 -2.2
v -1.7 0.4 -2.4
v -1.7 0.4 -2.9
v -1.7 0.4 -3.1
v -1.7 0.4 -3.2
v -1.7 0.5 3.2
v -1.7 0.5 3.1
v -1.7 0.5 2.8
v -1.7 0.6 3.2
v -1.7 0.6 3.1
v -1.7 0.6 2.8
v -1.7 0.6 2.3
v -1.7 0.6 2.1
v -1.7 0.6 1.9
v -1.7 0.6 -1.8
v -1.7 0.6 -2.2
v -1.7 0.6 -2.4
v -1.7 0.6 -2.9
v -1.7 0.6 -3.1
v -1.7 0.6 -3.2
v -1.6 0.2 3.2
v -1.6 0.2 2.8
v -1.6 0.2 1.9
v -1.6 0.2 -1.7
v -1.6 0.2 -2.9
v -1.6 0.2 -3.1
v -1.6 0.2 -3.2
v -1.6 0.3 3.1
v -1.6 0.3 2.8
v -1.6 0.3 2.3
v -1.6 0.3 2.1
v -1.6 0.3 1.9
v -1.6 0.3 -1.7
v -1.6 0.3 -1.8
v -1.6 0.3 -2.2
v -1.6 0.3 -2.4
v -1.6 0.4 2.3
v -1.6 0.4 2.1
v -1.6 0.4 1.9
v -1.6 0.4 -1.8
v -1.6 0.4 -2.2
v -1.6 0.4 -2.4
v -1.6 0.4 -2.9
v -1.6 0.4 -3.1
v -1.6 0.4 -3.2
v -1.6 0.5 3.2
v -1.6 0.5 3.1
v -1.6 0.5 2.8
v -0.6 0.8 1.2
v -0.6 0.8 0.8
v -0.6 0.8 0.7
v -0.6 0.8 -0.8
v -0.6 0.8 -0.9
v -0.6 0.8 -1.3
v -0.6 0.9 1.2
v -0.6 0.9 0.8
v -0.6 0.9 0.7
v -0.6 0.9 -0.8
v -0.6 0.9 -0.9
v -0.6 0.9 -1.3
v 0.6 0.9 0.8
v 0.6 0.9 0.7
v 0.6 0.9 -0.8
v 0.6 0.9 -0.9
v 0.6 1 0.8
v 0.6 1 0.7
v 0.6 1 -0.8
v 0.6 1 -0.9
v 0.7 0.8 0.8
v 0.7 0.8 0.7
v 0.7 0.8 -0.8
v 0.7 0.8 -0.9
v 0.7 0.9 0.8
v 0.7 0.9 0.7
v 0.7 0.9 -0.8
v 0.7 0.9 -0.9
v 0.7 1.1 0.7
v 0.7 1.1 0.6
v 0.7 1.1 -0.7
v 0.7 1.1 -0.8
v 0.7 2.7 0.7
v 0.7 2.7 0.6
v 0.7 2.7 -0.7
v 0.7 2.7 -0.8
v 1 0.8 0.6
v 1 0.8 0.4
v 1 0.8 -0.5
v 1 0.8 -0.7
v 1 0.9 0.7
v 1 0.9 0.6
v 1 0.9 0.5
v 1 0.9 0.4
v 1 0.9 0.3
v 1 0.9 -0.4
v 1 0.9 -0.5
v 1 0.9 -0.6
v 1 0.9 -0.7
v 1 0.9 -0.8
v 1 1 0.6
v 1 1 0.5
v 1 1 0.3
v 1 1 -0.4
v 1 1 -0.6
v 1 1 -0.7
v 1 1.1 0.7
v 1 1.1 0.6
v 1 1.1 -0.7
v 1 1.1 -0.8
v 1.1 0.8 0.4
v 1.1 0.8 -0.5
v 1.1 0.9 0.4
v 1.1 0.9 0.3
v 1.1 0.9 -0.4
v 1.1 0.9 -0.5
v 1.1 1 0.3
v 1.1 1 -0.4
v 1.4 0.6 1.2
v 1.4 0.6 1.1
v 1.4 0.6 -1.2
v 1.4 0.6 -1.3
v 1.4 0.7 1.2
v 1.4 0.7 1.1
v 1.4 0.7 -1.2
v 1.4 0.7 -1.3
v 1.5 0.6 1.1
v 1.5 0.6 -1.2
v 1.5 0.7 1.2
v 1.5 0.7 1.1
v 1.5 0.7 -1.2
v 1.5 0.7 -1.3
v 1.5 0.8 0.6
v 1.5 0.8 -0.7
v 1.5 0.9 1.2
v 1.5 0.9 1.1
v 1.5 0.9 0.6
v 1.5 0.9 -0.7
v 1.5 0.9 -1.2
v 1.5 0.9 -1.3
v 2.3 0 3
v 2.3 0 2.7
v 2.3 0 2.5
v 2.3 0 -2.5
v 2.3 0 -2.7
v 2.3 0 -3
v 2.3 0.1 3
v 2.3 0.1 2.7
v 2.3 0.1 2.5
v 2.3 0.1 -2.5
v 2.3 0.1 -2.7
v 2.3 0.1 -3
v 2.3 0.6 3
v 2.3 0.6 2.7
v 2.3 0.6 2.5
v 2.3 0.6 -2.5
v 2.3 0.6 -2.7
v 2.3 0.6 -3
v 2.4 0.4 3.2
v 2.4 0.4 3.1
v 2.4 0.4 3
v 2.4 0.4 2.7
v 2.4 0.4 2.5
v 2.4 0.4 -2.5
v 2.4 0.4 -2.7
v 2.4 0.4 -3
v 2.4 0.4 -3.1
v 2.4 0.4 -3.2
v 2.4 0.6 3.2
v 2.4 0.6 3.1
v 2.4 0.6 3
v 2.4 0.6 2.7
v 2.4 0.6 2.5
v 2.4 0.6 -2.5
v 2.4 0.6 -2.7
v 2.4 0.6 -3
v 2.4 0.6 -3.1
v 2.4 0.6 -3.2
v 2.5 0.3 3.2
v 2.5 0.3 3.1
v 2.5 0.3 3
v 2.5 0.3 2.7
v 2.5 0.3 2.5
v 2.5 0.3 -2.5
v 2.5 0.3 -2.7
v 2.5 0.3 -3
v 2.5 0.3 -3.1
v 2.5 0.3 -3.2
v 2.5 0.4 3.2
v 2.5 0.4 3.1
v 2.5 0.4 3
v 2.5 0.4 2.7
v 2.5 0.4 2.5
v 2.5 0.4 -2.5
v 2.5 0.4 -2.7
v 2.5 0.4 -3
v 2.5 0.4 -3.1
v 2.5 0.4 -3.2
v 2.6 0 3.2
v 2.6 0 3
v 2.6 0 2.7
v 2.6 0 2.5
v 2.6 0 -2.5
v 2.6 0 -2.7
v 2.6 0 -3
v 2.6 0 -3.2
v 2.6 0.1 3.1
v 2.6 0.1 3
v 2.6 0.1 2.7
v 2.6 0.1 2.5
v 2.6 0.1 -2.5
v 2.6 0.1 -2.7
v 2.6 0.1 -3
v 2.6 0.1 -3.1
v 2.6 0.3 3.2
v 2.6 0.3 3.1
v 2.6 0.3 3
v 2.6 0.3 2.7
v 2.6 0.3 2.5
v 2.6 0.3 -2.5
v 2.6 0.3 -2.7
v 2.6 0.3 -3
v 2.6 0.3 -3.1
v 2.6 0.3 -3.2
v -2.5 0 3.2
v -2.5 0.4 3.2
v -2.4 0.1 3.2
v -2.4 0.3 3.2
v -2.4 0.4 3.2
v -2.4 0.5 3.2
v -2.3 0.3 3.2
v -2.3 0.4 3.2
v -2.3 0.5 3.2
v -2.3 0.6 3.2
v -2.2 0.4 3.2
v -2.2 0.5 3.2
v -1.7 0 3.2
v -1.7 0.1 3.2
v -1.7 0.5 3.2
v -1.7 0.6 3.2
v -1.6 0.1 3.2
v -1.6 0.2 3.2
v -1.6 0.5 3.2
v 1.6 0.1 3.2
v 1.6 0.2 3.2
v 1.6 0.5 3.2
v 1.7 0 3.2
v 1.7 0.1 3.2
v 1.7 0.2 3.2
v 1.7 0.5 3.2
v 1.7 0.6 3.2
v 1.8 0.1 3.2
v 1.8 0.2 3.2
v 2.3 0.3 3.2
v 2.3 0.5 3.2
v 2.4 0.2 3.2
v 2.4 0.3 3.2
v 2.4 0.4 3.2
v 2.4 0.6 3.2
v 2.5 0.1 3.2
v 2.5 0.2 3.2
v 2.5 0.3 3.2
v 2.5 0.4 3.2
v 2.6 0 3.2
v 2.6 0.3 3.2
v -2.5 0 2.7
v -2.5 0.1 2.7
v -2.5 0.4 2.7
v -2.4 0.4 2.7
v -2.4 0.5 2.7
v -2.3 0.5 2.7
v -2.3 0.6 2.7
v -2.2 0 2.7
v -2.2 0.1 2.7
v -2.2 0.6 2.7
v 2.3 0 2.7
v 2.3 0.1 2.7
v 2.3 0.6 2.7
v 2.4 0.4 2.7
v 2.4 0.6 2.7
v 2.5 0.3 2.7
v 2.5 0.4 2.7
v 2.6 0 2.7
v 2.6 0.1 2.7
v 2.6 0.3 2.7
v -1.8 0.2 2.3
v -1.8 0.6 2.3
v -1.7 0.2 2.3
v -1.7 0.4 2.3
v -1.7 0.6 2.3
v -1.6 0.3 2.3
v -1.6 0.4 2.3
v 1.6 0.3 2.3
v 1.6 0.5 2.3
v 1.7 0.2 2.3
v 1.7 0.5 2.3
v 1.7 0.6 2.3
v 1.8 0.2 2.3
v 1.8 0.6 2.3
v -1.7 0.4 1.9
v -1.7 0.6 1.9
v -1.6 0.3 1.9
v -1.6 0.4 1.9
v 1.6 0.3 1.9
v 1.6 0.5 1.9
v 1.7 0.5 1.9
v 1.7 0.6 1.9
v -1.4 0.2 1.8
v -1.4 0.3 1.8
v 1.6 0.2 1.8
v 1.6 0.3 1.8
v 1.7 0.2 1.8
v 1.7 0.3 1.8
v -1.2 0.7 1.2
v -1.2 0.9 1.2
v -1.1 0.6 1.2
v -1.1 0.7 1.2
v -1.1 0.9 1.2
v -0.6 0.8 1.2
v -0.6 0.9 1.2
v 0.9 0.8 1.2
v 0.9 0.9 1.2
v 1.4 0.6 1.2
v 1.4 0.7 1.2
v 1.4 0.9 1.2
v 1.5 0.7 1.2
v 1.5 0.9 1.2
v -1.2 0.6 1.1
v -1.2 0.7 1.1
v -1.1 0.6 1.1
v -1.1 0.7 1.1
v 1.4 0.6 1.1
v 1.4 0.7 1.1
v 1.5 0.6 1.1
v 1.5 0.7 1.1
v -0.4 0.8 0.8
v -0.4 0.9 0.8
v -0.3 0.9 0.8
v -0.3 1 0.8
v 0.6 0.9 0.8
v 0.6 1 0.8
v 0.7 0.8 0.8
v 0.7 0.9 0.8
v -0.7 0.9 0.7
v -0.7 1.1 0.7
v -0.6 0.8 0.7
v -0.6 0.9 0.7
v -0.6 1 0.7
v -0.6 1.1 0.7
v -0.5 0.9 0.7
v -0.5 1 0.7
v -0.4 0.8 0.7
v -0.4 0.9 0.7
v -0.4 1.1 0.7
v -0.4 2.7 0.7
v -0.3 0.9 0.7
v -0.3 1 0.7
v -0.3 1.1 0.7
v -0.3 2.7 0.7
v 0.6 0.9 0.7
v 0.6 1 0.7
v 0.6 1.1 0.7
v 0.6 2.7 0.7
v 0.7 0.8 0.7
v 0.7 0.9 0.7
v 0.7 1.1 0.7
v 0.7 2.7 0.7
v 0.8 0.9 0.7
v 0.8 1 0.7
v 0.9 0.8 0.7
v 0.9 0.9 0.7
v 0.9 1 0.7
v 0.9 1.1 0.7
v 1 0.9 0.7
v 1 1.1 0.7
v -0.8 0.8 0.4
v -0.8 0.9 0.4
v -0.7 0.8 0.4
v -0.7 0.9 0.4
v 1 0.8 0.4
v 1 0.9 0.4
v 1.1 0.8 0.4
v 1.1 0.9 0.4
v -0.8 0.9 0.3
v -0.8 1 0.3
v -0.7 0.9 0.3
v -0.7 1 0.3
v 1 0.9 0.3
v 1 1 0.3
v 1.1 0.9 0.3
v 1.1 1 0.3
v -1.2 0.8 -0.7
v -1.2 0.9 -0.7
v -0.8 0.8 -0.7
v -0.8 0.9 -0.7
v -0.7 0.8 -0.7
v -0.7 0.9 -0.7
v 1 0.8 -0.7
v 1 0.9 -0.7
v 1.1 0.8 -0.7
v 1.1 0.9 -0.7
v 1.5 0.8 -0.7
v 1.5 0.9 -0.7
v -1.6 0.2 -1.7
v -1.6 0.3 -1.7
v -1.4 0.2 -1.7
v -1.4 0.3 -1.7
v -2.5 0 -2.5
v -2.5 0.1 -2.5
v -2.5 0.4 -2.5
v -2.4 0.4 -2.5
v -2.4 0.5 -2.5
v -2.3 0 -2.5
v -2.3 0.1 -2.5
v -2.3 0.5 -2.5
v -2.3 0.6 -2.5
v -2.2 0.1 -2.5
v -2.2 0.6 -2.5
v 2.3 0 -2.5
v 2.3 0.1 -2.5
v 2.3 0.6 -2.5
v 2.4 0.4 -2.5
v 2.4 0.6 -2.5
v 2.5 0.3 -2.5
v 2.5 0.4 -2.5
v 2.6 0 -2.5
v 2.6 0.1 -2.5
v 2.6 0.3 -2.5
v 1.6 0.2 -2.8
v 1.6 0.3 -2.8
v 1.6 0.4 -2.8
v 1.7 0.2 -2.8
v 1.7 0.4 -2.8
v 1.7 0.6 -2.8
v 1.8 0.2 -2.8
v 1.8 0.3 -2.8
v 1.8 0.6 -2.8
v -1.8 0.2 -2.9
v -1.8 0.3 -2.9
v -1.8 0.6 -2.9
v -1.7 0.2 -2.9
v -1.7 0.3 -2.9
v -1.7 0.4 -2.9
v -1.7 0.6 -2.9
v -1.6 0.2 -2.9
v -1.6 0.4 -2.9
v -2.5 0 -3
v -2.5 0.1 -3
v -2.5 0.4 -3
v -2.4 0.4 -3
v -2.4 0.5 -3
v -2.3 0.5 -3
v -2.3 0.6 -3
v -2.2 0 -3
v -2.2 0.1 -3
v -2.2 0.6 -3
v 2.3 0 -3
v 2.3 0.1 -3
v 2.3 0.6 -3
v 2.4 0.4 -3
v 2.4 0.6 -3
v 2.5 0.3 -3
v 2.5 0.4 -3
v 2.6 0 -3
v 2.6 0.1 -3
v 2.6 0.3 -3
v -2.5 0 3
v -2.5 0.1 3
v -2.5 0.4 3
v -2.4 0.4 3
v -2.4 0.5 3
v -2.3 0.5 3
v -2.3 0.6 3
v -2.2 0 3
v -2.2 0.1 3
v -2.2 0.6 3
v -1.8 0 3
v -1.8 0.1 3
v -1.7 0 3
v -1.7 0.1 3
v 1.7 0 3
v 1.7 0.1 3
v 1.8 0 3
v 1.8 0.1 3
v 2.3 0 3
v 2.3 0.1 3
v 2.3 0.6 3
v 2.4 0.4 3
v 2.4 0.6 3
v 2.5 0.3 3
v 2.5 0.4 3
v 2.6 0 3
v 2.6 0.1 3
v 2.6 0.3 3
v -1.8 0.2 2.8
v -1.8 0.3 2.8
v -1.8 0.6 2.8
v -1.7 0.2 2.8
v -1.7 0.5 2.8
v -1.7 0.6 2.8
v -1.6 0.2 2.8
v -1.6 0.3 2.8
v -1.6 0.5 2.8
v 1.6 0.2 2.8
v 1.6 0.3 2.8
v 1.6 0.5 2.8
v 1.7 0.2 2.8
v 1.7 0.5 2.8
v 1.7 0.6 2.8
v 1.8 0.2 2.8
v 1.8 0.3 2.8
v 1.8 0.6 2.8
v -2.5 0 2.5
v -2.5 0.1 2.5
v -2.5 0.4 2.5
v -2.4 0.4 2.5
v -2.4 0.5 2.5
v -2.3 0 2.5
v -2.3 0.1 2.5
v -2.3 0.5 2.5
v -2.3 0.6 2.5
v -2.2 0.1 2.5
v -2.2 0.6 2.5
v 2.3 0 2.5
v 2.3 0.1 2.5
v 2.3 0.6 2.5
v 2.4 0.4 2.5
v 2.4 0.6 2.5
v 2.5 0.3 2.5
v 2.5 0.4 2.5
v 2.6 0 2.5
v 2.6 0.1 2.5
v 2.6 0.3 2.5
v -1.6 0.2 1.9
v -1.6 0.3 1.9
v 1.6 0.2 1.9
v 1.6 0.3 1.9
v 1.7 0.2 1.9
v 1.7 0.3 1.9
v -1.2 0.8 0.6
v -1.2 0.9 0.6
v -0.8 0.8 0.6
v -0.8 0.9 0.6
v -0.7 0.8 0.6
v -0.7 0.9 0.6
v 1 0.8 0.6
v 1 0.9 0.6
v 1.1 0.8 0.6
v 1.1 0.9 0.6
v 1.5 0.8 0.6
v 1.5 0.9 0.6
v -0.8 0.9 -0.4
v -0.8 1 -0.4
v -0.7 0.9 -0.4
v -0.7 1 -0.4
v 1 0.9 -0.4
v 1 1 -0.4
v 1.1 0.9 -0.4
v 1.1 1 -0.4
v -0.8 0.8 -0.5
v -0.8 0.9 -0.5
v -0.7 0.8 -0.5
v -0.7 0.9 -0.5
v 1 0.8 -0.5
v 1 0.9 -0.5
v 1.1 0.8 -0.5
v 1.1 0.9 -0.5
v -0.7 0.9 -0.8
v -0.7 1.1 -0.8
v -0.6 0.8 -0.8
v -0.6 0.9 -0.8
v -0.6 1 -0.8
v -0.6 1.1 -0.8
v -0.5 0.9 -0.8
v -0.5 1 -0.8
v -0.4 0.8 -0.8
v -0.4 0.9 -0.8
v -0.4 1.1 -0.8
v -0.4 2.7 -0.8
v -0.3 0.9 -0.8
v -0.3 1 -0.8
v -0.3 1.1 -0.8
v -0.3 2.7 -0.8
v 0.6 0.9 -0.8
v 0.6 1 -0.8
v 0.6 1.1 -0.8
v 0.6 2.7 -0.8
v 0.7 0.8 -0.8
v 0.7 0.9 -0.8
v 0.7 1.1 -0.8
v 0.7 2.7 -0.8
v 0.8 0.9 -0.8
v 0.8 1 -0.8
v 0.9 0.8 -0.8
v 0.9 0.9 -0.8
v 0.9 1 -0.8
v 0.9 1.1 -0.8
v 1 0.9 -0.8
v 1 1.1 -0.8
v -0.4 0.8 -0.9
v -0.4 0.9 -0.9
v -0.3 0.9 -0.9
v -0.3 1 -0.9
v 0.6 0.9 -0.9
v 0.6 1 -0.9
v 0.7 0.8 -0.9
v 0.7 0.9 -0.9
v -1.2 0.6 -1.2
v -1.2 0.7 -1.2
v -1.1 0.6 -1.2
v -1.1 0.7 -1.2
v 1.4 0.6 -1.2
v 1.4 0.7 -1.2
v 1.5 0.6 -1.2
v 1.5 0.7 -1.2
v -1.2 0.7 -1.3
v -1.2 0.9 -1.3
v -1.1 0.6 -1.3
v -1.1 0.7 -1.3
v -1.1 0.9 -1.3
v -0.6 0.8 -1.3
v -0.6 0.9 -1.3
v 0.9 0.8 -1.3
v 0.9 0.9 -1.3
v 1.4 0.6 -1.3
v 1.4 0.7 -1.3
v 1.4 0.9 -1.3
v 1.5 0.7 -1.3
v 1.5 0.9 -1.3
v -1.7 0.4 -1.8
v -1.7 0.6 -1.8
v -1.6 0.3 -1.8
v -1.6 0.4 -1.8
v 1.6 0.3 -1.8
v 1.6 0.4 -1.8
v 1.7 0.4 -1.8
v 1.7 0.6 -1.8
v -1.8 0.2 -2.4
v -1.8 0.6 -2.4
v -1.7 0.2 -2.4
v -1.7 0.4 -2.4
v -1.7 0.6 -2.4
v -1.6 0.3 -2.4
v -1.6 0.4 -2.4
v 1.6 0.3 -2.4
v 1.6 0.4 -2.4
v 1.7 0.2 -2.4
v 1.7 0.4 -2.4
v 1.7 0.6 -2.4
v 1.8 0.2 -2.4
v 1.8 0.6 -2.4
v -2.5 0 -2.7
v -2.5 0.1 -2.7
v -2.5 0.4 -2.7
v -2.4 0.4 -2.7
v -2.4 0.5 -2.7
v -2.3 0.5 -2.7
v -2.3 0.6 -2.7
v -2.2 0 -2.7
v -2.2 0.1 -2.7
v -2.2 0.6 -2.7
v 2.3 0 -2.7
v 2.3 0.1 -2.7
v 2.3 0.6 -2.7
v 2.4 0.4 -2.7
v 2.4 0.6 -2.7
v 2.5 0.3 -2.7
v 2.5 0.4 -2.7
v 2.6 0 -2.7
v 2.6 0.1 -2.7
v 2.6 0.3 -2.7
v -2.5 0 -3.2
v -2.5 0.4 -3.2
v -2.4 0.1 -3.2
v -2.4 0.3 -3.2
v -2.4 0.4 -3.2
v -2.4 0.5 -3.2
v -2.3 0.3 -3.2
v -2.3 0.5 -3.2
v -2.3 0.6 -3.2
v -1.9 0.1 -3.2
v -1.9 0.2 -3.2
v -1.8 0 -3.2
v -1.8 0.1 -3.2
v -1.8 0.4 -3.2
v -1.8 0.5 -3.2
v -1.7 0.2 -3.2
v -1.7 0.4 -3.2
v -1.7 0.6 -3.2
v -1.6 0.2 -3.2
v -1.6 0.4 -3.2
v 1.6 0.2 -3.2
v 1.6 0.4 -3.2
v 1.7 0.2 -3.2
v 1.7 0.4 -3.2
v 1.7 0.6 -3.2
v 1.8 0 -3.2
v 1.8 0.1 -3.2
v 1.8 0.2 -3.2
v 1.8 0.4 -3.2
v 1.8 0.5 -3.2
v 2.3 0.3 -3.2
v 2.3 0.5 -3.2
v 2.4 0.2 -3.2
v 2.4 0.3 -3.2
v 2.4 0.4 -3.2
v 2.4 0.6 -3.2
v 2.5 0.1 -3.2
v 2.5 0.2 -3.2
v 2.5 0.3 -3.2
v 2.5 0.4 -3.2
v 2.6 0 -3.2
v 2.6 0.3 -3.2
v -2.5 0 3.2
v -1.7 0 3.2
v 1.7 0 3.2
v 2.6 0 3.2
v -2.2 0 3.1
v -2.1 0 3.1
v -2.5 0 3
v -2.2 0 3
v -2.1 0 3
v -1.8 0 3
v -1.7 0 3
v 1.7 0 3
v 1.8 0 3
v 2.3 0 3
v 2.6 0 3
v -2.5 0 2.7
v -2.2 0 2.7
v 2.3 0 2.7
v 2.6 0 2.7
v -2.5 0 2.5
v -2.3 0 2.5
v 2.3 0 2.5
v 2.6 0 2.5
v -2.5 0 -2.5
v -2.3 0 -2.5
v 2.3 0 -2.5
v 2.6 0 -2.5
v -2.5 0 -2.7
v -2.2 0 -2.7
v 2.3 0 -2.7
v 2.6 0 -2.7
v -2.5 0 -3
v -2.2 0 -3
v 2.2 0 -3
v 2.3 0 -3
v 2.6 0 -3
v 2.2 0 -3.1
v 2.3 0 -3.1
v -2.5 0 -3.2
v -1.8 0 -3.2
v 1.8 0 -3.2
v 2.6 0 -3.2
v -1.7 0.1 3.2
v -1.6 0.1 3.2
v 1.6 0.1 3.2
v 1.7 0.1 3.2
v -1.7 0.1 3.1
v -1.6 0.1 3.1
v 1.6 0.1 3.1
v 1.7 0.1 3.1
v -1.8 0.1 3
v -1.7 0.1 3
v 1.7 0.1 3
v 1.8 0.1 3
v -1.8 0.1 2.8
v -1.7 0.1 2.8
v 1.7 0.1 2.8
v 1.8 0.1 2.8
v -1.8 0.1 2.3
v -1.7 0.1 2.3
v 1.7 0.1 2.3
v 1.8 0.1 2.3
v -1.8 0.1 -2.4
v -1.7 0.1 -2.4
v 1.7 0.1 -2.4
v 1.8 0.1 -2.4
v 1.7 0.1 -2.8
v 1.8 0.1 -2.8
v -1.8 0.1 -2.9
v -1.7 0.1 -2.9
v -1.8 0.1 -3.1
v 1.8 0.1 -3.1
v -1.8 0.1 -3.2
v 1.8 0.1 -3.2
v -1.6 0.3 1.9
v 1.6 0.3 1.9
v 1.7 0.3 1.9
v -1.4 0.3 1.8
v 1.6 0.3 1.8
v 1.7 0.3 1.8
v -1.6 0.3 -1.7
v -1.4 0.3 -1.7
v -1.2 0.7 1.2
v -1.1 0.7 1.2
v 1.4 0.7 1.2
v 1.5 0.7 1.2
v -1.2 0.7 1.1
v -1.1 0.7 1.1
v 1.4 0.7 1.1
v 1.5 0.7 1.1
v -1.2 0.7 -1.2
v -1.1 0.7 -1.2
v 1.4 0.7 -1.2
v 1.5 0.7 -1.2
v -1.2 0.7 -1.3
v -1.1 0.7 -1.3
v 1.4 0.7 -1.3
v 1.5 0.7 -1.3
v -2.3 0.1 2.5
v -2.2 0.1 2.5
v -2.3 0.1 -2.5
v -2.2 0.1 -2.5
v -1.6 0.2 3.2
v 1.6 0.2 3.2
v -1.8 0.2 2.8
v -1.7 0.2 2.8
v -1.6 0.2 2.8
v 1.6 0.2 2.8
v 1.7 0.2 2.8
v 1.8 0.2 2.8
v -1.8 0.2 2.5
v 1.8 0.2 2.5
v -1.8 0.2 2.3
v -1.7 0.2 2.3
v 1.7 0.2 2.3
v 1.8 0.2 2.3
v -1.6 0.2 1.9
v 1.6 0.2 1.9
v 1.7 0.2 1.9
v -1.4 0.2 1.8
v 1.6 0.2 1.8
v 1.7 0.2 1.8
v -1.6 0.2 -1.7
v -1.4 0.2 -1.7
v -1.8 0.2 -2.4
v -1.7 0.2 -2.4
v 1.7 0.2 -2.4
v 1.8 0.2 -2.4
v -1.8 0.2 -2.5
v 1.8 0.2 -2.5
v 1.6 0.2 -2.8
v 1.7 0.2 -2.8
v 1.8 0.2 -2.8
v -1.8 0.2 -2.9
v -1.7 0.2 -2.9
v -1.6 0.2 -2.9
v -1.6 0.2 -3.1
v 1.6 0.2 -3.1
v -1.6 0.2 -3.2
v 1.6 0.2 -3.2
v 2.5 0.3 3.2
v 2.6 0.3 3.2
v 2.5 0.3 3.1
v 2.6 0.3 3.1
v 2.5 0.3 3
v 2.6 0.3 3
v 2.5 0.3 2.7
v 2.6 0.3 2.7
v 2.5 0.3 2.5
v 2.6 0.3 2.5
v -1.6 0.3 2.3
v 1.6 0.3 2.3
v -1.6 0.3 2.1
v 1.6 0.3 2.1
v -1.6 0.3 1.9
v 1.6 0.3 1.9
v -1.6 0.3 -1.8
v 1.6 0.3 -1.8
v -1.6 0.3 -2.2
v 1.6 0.3 -2.2
v -1.6 0.3 -2.4
v 1.6 0.3 -2.4
v 2.5 0.3 -2.5
v 2.6 0.3 -2.5
v 2.5 0.3 -2.7
v 2.6 0.3 -2.7
v 2.5 0.3 -3
v 2.6 0.3 -3
v 2.5 0.3 -3.1
v 2.6 0.3 -3.1
v 2.5 0.3 -3.2
v 2.6 0.3 -3.2
v -2.5 0.4 3.2
v -2.4 0.4 3.2
v 2.4 0.4 3.2
v 2.5 0.4 3.2
v -2.5 0.4 3.1
v -2.4 0.4 3.1
v 2.4 0.4 3.1
v 2.5 0.4 3.1
v -2.5 0.4 3
v -2.4 0.4 3
v 2.4 0.4 3
v 2.5 0.4 3
v -2.5 0.4 2.7
v -2.4 0.4 2.7
v 2.4 0.4 2.7
v 2.5 0.4 2.7
v -2.5 0.4 2.5
v -2.4 0.4 2.5
v 2.4 0.4 2.5
v 2.5 0.4 2.5
v -1.7 0.4 2.3
v -1.6 0.4 2.3
v -1.7 0.4 2.1
v -1.6 0.4 2.1
v -1.7 0.4 1.9
v -1.6 0.4 1.9
v -1.7 0.4 -1.8
v -1.6 0.4 -1.8
v 1.6 0.4 -1.8
v 1.7 0.4 -1.8
v -1.7 0.4 -2.2
v -1.6 0.4 -2.2
v 1.6 0.4 -2.2
v 1.7 0.4 -2.2
v -1.7 0.4 -2.4
v -1.6 0.4 -2.4
v 1.6 0.4 -2.4
v 1.7 0.4 -2.4
v -2.5 0.4 -2.5
v -2.4 0.4 -2.5
v 2.4 0.4 -2.5
v 2.5 0.4 -2.5
v -2.5 0.4 -2.7
v -2.4 0.4 -2.7
v 2.4 0.4 -2.7
v 2.5 0.4 -2.7
v 1.6 0.4 -2.8
v 1.7 0.4 -2.8
v -1.7 0.4 -2.9
v -1.6 0.4 -2.9
v -2.5 0.4 -3
v -2.4 0.4 -3
v 2.4 0.4 -3
v 2.5 0.4 -3
v -2.5 0.4 -3.1
v -2.4 0.4 -3.1
v -1.7 0.4 -3.1
v -1.6 0.4 -3.1
v 1.6 0.4 -3.1
v 1.7 0.4 -3.1
v 2.4 0.4 -3.1
v 2.5 0.4 -3.1
v -2.5 0.4 -3.2
v -2.4 0.4 -3.2
v -1.7 0.4 -3.2
v -1.6 0.4 -3.2
v 1.6 0.4 -3.2
v 1.7 0.4 -3.2
v 2.4 0.4 -3.2
v 2.5 0.4 -3.2
v -2.4 0.5 3.2
v -2.3 0.5 3.2
v -1.7 0.5 3.2
v -1.6 0.5 3.2
v 1.6 0.5 3.2
v 1.7 0.5 3.2
v -2.4 0.5 3.1
v -2.3 0.5 3.1
v -1.7 0.5 3.1
v -1.6 0.5 3.1
v 1.6 0.5 3.1
v 1.7 0.5 3.1
v -2.4 0.5 3
v -2.3 0.5 3
v -1.7 0.5 2.8
v -1.6 0.5 2.8
v 1.6 0.5 2.8
v 1.7 0.5 2.8
v -2.4 0.5 2.7
v -2.3 0.5 2.7
v -2.4 0.5 2.5
v -2.3 0.5 2.5
v 1.6 0.5 2.3
v 1.7 0.5 2.3
v 1.6 0.5 2.1
v 1.7 0.5 2.1
v 1.6 0.5 1.9
v 1.7 0.5 1.9
v -2.4 0.5 -2.5
v -2.3 0.5 -2.5
v -2.4 0.5 -2.7
v -2.3 0.5 -2.7
v -2.4 0.5 -3
v -2.3 0.5 -3
v -2.4 0.5 -3.1
v -2.3 0.5 -3.1
v -2.4 0.5 -3.2
v -2.3 0.5 -3.2
v -2.3 0.6 3.2
v -1.7 0.6 3.2
v 1.7 0.6 3.2
v 2.4 0.6 3.2
v -2.3 0.6 3.1
v -1.7 0.6 3.1
v 1.7 0.6 3.1
v 2.4 0.6 3.1
v -2.3 0.6 3
v -2.2 0.6 3
v 2.3 0.6 3
v 2.4 0.6 3
v -1.8 0.6 2.8
v -1.7 0.6 2.8
v 1.7 0.6 2.8
v 1.8 0.6 2.8
v -2.3 0.6 2.7
v -2.2 0.6 2.7
v 2.3 0.6 2.7
v 2.4 0.6 2.7
v 2.2 0.6 2.6
v 2.3 0.6 2.6
v -2.3 0.6 2.5
v -2.2 0.6 2.5
v -1.8 0.6 2.5
v 1.8 0.6 2.5
v 2.2 0.6 2.5
v 2.3 0.6 2.5
v 2.4 0.6 2.5
v -1.8 0.6 2.3
v -1.7 0.6 2.3
v 1.7 0.6 2.3
v 1.8 0.6 2.3
v -1.8 0.6 2.1
v -1.7 0.6 2.1
v 1.7 0.6 2.1
v 1.8 0.6 2.1
v -1.7 0.6 1.9
v 1.7 0.6 1.9
v -1.1 0.6 1.2
v 1.4 0.6 1.2
v -1.2 0.6 1.1
v -1.1 0.6 1.1
v 1.4 0.6 1.1
v 1.5 0.6 1.1
v -1.2 0.6 -1.2
v -1.1 0.6 -1.2
v 1.4 0.6 -1.2
v 1.5 0.6 -1.2
v -1.1 0.6 -1.3
v 1.4 0.6 -1.3
v -1.7 0.6 -1.8
v 1.7 0.6 -1.8
v -1.8 0.6 -2.2
v -1.7 0.6 -2.2
v 1.7 0.6 -2.2
v 1.8 0.6 -2.2
v -1.8 0.6 -2.4
v -1.7 0.6 -2.4
v 1.7 0.6 -2.4
v 1.8 0.6 -2.4
v -2.3 0.6 -2.5
v -2.2 0.6 -2.5
v -1.8 0.6 -2.5
v 1.8 0.6 -2.5
v 2.3 0.6 -2.5
v 2.4 0.6 -2.5
v -2.3 0.6 -2.7
v -2.2 0.6 -2.7
v 2.3 0.6 -2.7
v 2.4 0.6 -2.7
v 1.7 0.6 -2.8
v 1.8 0.6 -2.8
v -1.8 0.6 -2.9
v -1.7 0.6 -2.9
v -2.3 0.6 -3
v -2.2 0.6 -3
v 2.3 0.6 -3
v 2.4 0.6 -3
v -2.3 0.6 -3.1
v -1.7 0.6 -3.1
v 1.7 0.6 -3.1
v 2.4 0.6 -3.1
v -2.3 0.6 -3.2
v -1.7 0.6 -3.2
v 1.7 0.6 -3.2
v 2.4 0.6 -3.2
v -0.6 0.8 1.2
v 0.9 0.8 1.2
v -0.6 0.8 0.8
v -0.4 0.8 0.8
v 0.7 0.8 0.8
v 0.9 0.8 0.8
v -0.6 0.8 0.7
v -0.4 0.8 0.7
v 0.7 0.8 0.7
v 0.9 0.8 0.7
v -1.2 0.8 0.6
v -0.8 0.8 0.6
v -0.7 0.8 0.6
v 1 0.8 0.6
v 1.1 0.8 0.6
v 1.5 0.8 0.6
v -0.8 0.8 0.4
v -0.7 0.8 0.4
v 1 0.8 0.4
v 1.1 0.8 0.4
v -0.8 0.8 -0.5
v -0.7 0.8 -0.5
v 1 0.8 -0.5
v 1.1 0.8 -0.5
v -1.2 0.8 -0.7
v -0.8 0.8 -0.7
v -0.7 0.8 -0.7
v 1 0.8 -0.7
v 1.1 0.8 -0.7
v 1.5 0.8 -0.7
v -0.6 0.8 -0.8
v -0.4 0.8 -0.8
v 0.7 0.8 -0.8
v 0.9 0.8 -0.8
v -0.6 0.8 -0.9
v -0.4 0.8 -0.9
v 0.7 0.8 -0.9
v 0.9 0.8 -0.9
v -0.6 0.8 -1.3
v 0.9 0.8 -1.3
v -1.2 0.9 1.2
v -1.1 0.9 1.2
v -0.6 0.9 1.2
v 0.9 0.9 1.2
v 1.4 0.9 1.2
v 1.5 0.9 1.2
v -1.2 0.9 1.1
v -1.1 0.9 1.1
v 1.4 0.9 1.1
v 1.5 0.9 1.1
v -0.7 0.9 0.8
v -0.6 0.9 0.8
v -0.4 0.9 0.8
v -0.3 0.9 0.8
v 0.6 0.9 0.8
v 0.7 0.9 0.8
v 0.9 0.9 0.8
v 1 0.9 0.8
v -0.8 0.9 0.7
v -0.7 0.9 0.7
v -0.6 0.9 0.7
v -0.4 0.9 0.7
v -0.3 0.9 0.7
v 0.6 0.9 0.7
v 0.7 0.9 0.7
v 0.9 0.9 0.7
v 1 0.9 0.7
v 1.1 0.9 0.7
v -1.2 0.9 0.6
v -0.8 0.9 0.6
v -0.7 0.9 0.6
v 1 0.9 0.6
v 1.1 0.9 0.6
v 1.5 0.9 0.6
v -0.8 0.9 0.4
v -0.7 0.9 0.4
v 1 0.9 0.4
v 1.1 0.9 0.4
v -0.8 0.9 0.3
v -0.7 0.9 0.3
v 1 0.9 0.3
v 1.1 0.9 0.3
v -0.8 0.9 -0.4
v -0.7 0.9 -0.4
v 1 0.9 -0.4
v 1.1 0.9 -0.4
v -0.8 0.9 -0.5
v -0.7 0.9 -0.5
v 1 0.9 -0.5
v 1.1 0.9 -0.5
v -1.2 0.9 -0.7
v -0.8 0.9 -0.7
v -0.7 0.9 -0.7
v 1 0.9 -0.7
v 1.1 0.9 -0.7
v 1.5 0.9 -0.7
v -0.8 0.9 -0.8
v -0.7 0.9 -0.8
v -0.6 0.9 -0.8
v -0.4 0.9 -0.8
v -0.3 0.9 -0.8
v 0.6 0.9 -0.8
v 0.7 0.9 -0.8
v 0.9 0.9 -0.8
v 1 0.9 -0.8
v 1.1 0.9 -0.8
v -0.7 0.9 -0.9
v -0.6 0.9 -0.9
v -0.4 0.9 -0.9
v -0.3 0.9 -0.9
v 0.6 0.9 -0.9
v 0.7 0.9 -0.9
v 0.9 0.9 -0.9
v 1 0.9 -0.9
v -1.2 0.9 -1.2
v -1.1 0.9 -1.2
v 1.4 0.9 -1.2
v 1.5 0.9 -1.2
v -1.2 0.9 -1.3
v -1.1 0.9 -1.3
v -0.6 0.9 -1.3
v 0.9 0.9 -1.3
v 1.4 0.9 -1.3
v 1.5 0.9 -1.3
v -0.3 1 0.8
v 0.6 1 0.8
v -0.3 1 0.7
v 0.6 1 0.7
v -0.8 1 0.3
v -0.7 1 0.3
v 1 1 0.3
v 1.1 1 0.3
v -0.8 1 -0.4
v -0.7 1 -0.4
v 1 1 -0.4
v 1.1 1 -0.4
v -0.3 1 -0.8
v 0.6 1 -0.8
v -0.3 1 -0.9
v 0.6 1 -0.9
v -0.7 1.1 0.7
v -0.6 1.1 0.7
v -0.4 1.1 0.7
v 0.7 1.1 0.7
v 0.9 1.1 0.7
v 1 1.1 0.7
v -0.7 1.1 0.6
v -0.6 1.1 0.6
v -0.4 1.1 0.6
v 0.7 1.1 0.6
v 0.9 1.1 0.6
v 1 1.1 0.6
v -0.7 1.1 -0.7
v -0.6 1.1 -0.7
v -0.4 1.1 -0.7
v 0.7 1.1 -0.7
v 0.9 1.1 -0.7
v 1 1.1 -0.7
v -0.7 1.1 -0.8
v -0.6 1.1 -0.8
v -0.4 1.1 -0.8
v 0.7 1.1 -0.8
v 0.9 1.1 -0.8
v 1 1.1 -0.8
v -0.4 2.7 0.7
v -0.3 2.7 0.7
v 0.6 2.7 0.7
v 0.7 2.7 0.7
v -0.4 2.7 0.6
v -0.3 2.7 0.6
v 0.6 2.7 0.6
v 0.7 2.7 0.6
v -0.4 2.7 -0.7
v -0.3 2.7 -0.7
v 0.6 2.7 -0.7
v 0.7 2.7 -0.7
v -0.4 2.7 -0.8
v -0.3 2.7 -0.8
v 0.6 2.7 -0.8
v 0.7 2.7 -0.8

# faces
f 9/4/1 2/4/1 1/4/1
f 10/4/1 2/4/1 9/4/1
f 11/4/1 4/4/1 3/4/1
f 12/4/1 4/4/1 11/4/1
f 13/4/1 6/4/1 5/4/1
f 14/4/1 6/4/1 13/4/1
f 15/4/1 8/4/1 7/4/1
f 16/4/1 8/4/1 15/4/1
f 17/4/1 9/4/1 1/4/1
f 18/1/1 10/1/1 9/1/1
f 18/4/1 9/4/1 17/4/1
f 19/1/1 10/1/1 18/1/1
f 20/1/1 12/1/1 11/1/1
f 21/1/1 12/1/1 20/1/1
f 22/1/1 14/1/1 13/1/1
f 23/1/1 14/1/1 22/1/1
f 24/1/1 16/1/1 15/1/1
f 25/4/1 8/4/1 16/4/1
f 25/1/1 16/1/1 24/1/1
f 26/4/1 8/4/1 25/4/1
f 37/4/1 28/4/1 27/4/1
f 38/1/1 29/1/1 28/1/1
f 38/4/1 28/4/1 37/4/1
f 39/1/1 29/1/1 38/1/1
f 40/1/1 31/1/1 30/1/1
f 41/1/1 31/1/1 40/1/1
f 42/1/1 33/1/1 32/1/1
f 43/1/1 33/1/1 42/1/1
f 44/1/1 35/1/1 34/1/1
f 45/4/1 36/4/1 35/4/1
f 45/1/1 35/1/1 44/1/1
f 46/4/1 36/4/1 45/4/1
f 49/4/1 48/4/1 47/4/1
f 50/4/1 48/4/1 49/4/1
f 61/4/1 52/4/1 51/4/1
f 62/1/1 53/1/1 52/1/1
f 62/4/1 52/4/1 61/4/1
f 63/1/1 53/1/1 62/1/1
f 64/1/1 55/1/1 54/1/1
f 65/1/1 55/1/1 64/1/1
f 66/1/1 57/1/1 56/1/1
f 67/1/1 57/1/1 66/1/1
f 68/1/1 59/1/1 58/1/1
f 69/4/1 60/4/1 59/4/1
f 69/1/1 59/1/1 68/1/1
f 70/4/1 60/4/1 69/4/1
f 75/4/1 72/4/1 71/4/1
f 76/4/1 72/4/1 75/4/1
f 79/4/1 74/4/1 73/4/1
f 80/4/1 74/4/1 79/4/1
f 81/1/1 76/1/1 75/1/1
f 82/1/1 76/1/1 81/1/1
f 83/2/1 78/2/1 77/2/1
f 84/2/1 78/2/1 83/2/1
f 85/1/1 80/1/1 79/1/1
f 86/1/1 80/1/1 85/1/1
f 89/5/1 88/5/1 87/5/1
f 90/5/1 88/5/1 89/5/1
f 94/4/1 92/4/1 91/4/1
f 95/4/1 92/4/1 94/4/1
f 97/2/1 95/2/1 94/2/1
f 98/2/1 95/2/1 97/2/1
f 99/4/1 94/4/1 93/4/1
f 100/2/1 97/2/1 94/2/1
f 100/4/1 94/4/1 99/4/1
f 101/2/1 97/2/1 100/2/1
f 102/2/1 95/2/1 98/2/1
f 103/4/1 96/4/1 95/4/1
f 103/2/1 95/2/1 102/2/1
f 104/4/1 96/4/1 103/4/1
f 109/4/1 106/4/1 105/4/1
f 110/4/1 106/4/1 109/4/1
f 111/4/1 108/4/1 107/4/1
f 112/4/1 108/4/1 111/4/1
f 115/4/1 114/4/1 113/4/1
f 116/4/1 114/4/1 115/4/1
f 117/4/1 114/4/1 116/4/1
f 118/4/1 114/4/1 117/4/1
f 119/5/1 117/5/1 116/5/1
f 120/5/1 117/5/1 119/5/1
f 126/2/1 122/2/1 121/2/1
f 127/2/1 122/2/1 126/2/1
f 128/2/1 122/2/1 127/2/1
f 131/2/1 124/2/1 123/2/1
f 132/2/1 124/2/1 131/2/1
f 133/2/1 124/2/1 132/2/1
f 135/2/1 126/2/1 125/2/1
f 135/2/1 127/2/1 126/2/1
f 136/5/1 129/5/1 128/5/1
f 136/2/1 127/2/1 135/2/1
f 136/5/1 128/5/1 127/5/1
f 137/5/1 129/5/1 136/5/1
f 138/5/1 132/5/1 131/5/1
f 138/5/1 131/5/1 130/5/1
f 139/2/1 134/2/1 133/2/1
f 139/2/1 133/2/1 132/2/1
f 139/5/1 132/5/1 138/5/1
f 140/2/1 134/2/1 139/2/1
f 141/2/1 135/2/1 125/2/1
f 142/5/1 138/5/1 137/5/1
f 142/2/1 135/2/1 141/2/1
f 142/5/1 137/5/1 136/5/1
f 142/5/1 140/5/1 139/5/1
f 142/5/1 139/5/1 138/5/1
f 142/5/1 136/5/1 135/5/1
f 143/2/1 134/2/1 140/2/1
f 143/5/1 140/5/1 142/5/1
f 144/2/1 134/2/1 143/2/1
f 149/4/1 146/4/1 145/4/1
f 150/4/1 146/4/1 149/4/1
f 151/4/1 148/4/1 147/4/1
f 152/4/1 148/4/1 151/4/1
f 157/4/1 154/4/1 153/4/1
f 158/5/1 155/5/1 154/5/1
f 158/4/1 154/4/1 157/4/1
f 159/4/1 156/4/1 155/4/1
f 159/5/1 155/5/1 158/5/1
f 160/4/1 156/4/1 159/4/1
f 165/5/1 162/5/1 161/5/1
f 166/5/1 162/5/1 165/5/1
f 167/5/1 164/5/1 163/5/1
f 168/5/1 164/5/1 167/5/1
f 175/2/1 170/2/1 169/2/1
f 176/4/1 171/4/1 170/4/1
f 176/2/1 170/2/1 175/2/1
f 177/4/1 171/4/1 176/4/1
f 178/4/1 173/4/1 172/4/1
f 179/2/1 174/2/1 173/2/1
f 179/4/1 173/4/1 178/4/1
f 180/2/1 174/2/1 179/2/1
f 186/4/1 182/4/1 181/4/1
f 187/4/1 182/4/1 186/4/1
f 194/4/1 185/4/1 184/4/1
f 194/4/1 184/4/1 183/4/1
f 195/4/1 185/4/1 194/4/1
f 196/4/1 192/4/1 191/4/1
f 197/2/1 193/2/1 192/2/1
f 197/4/1 192/4/1 196/4/1
f 198/2/1 193/2/1 197/2/1
f 199/1/1 195/1/1 194/1/1
f 200/4/1 185/4/1 195/4/1
f 200/1/1 195/1/1 199/1/1
f 201/4/1 185/4/1 200/4/1
f 202/4/1 186/4/1 181/4/1
f 203/1/1 187/1/1 186/1/1
f 203/4/1 186/4/1 202/4/1
f 204/1/1 187/1/1 203/1/1
f 205/2/1 189/2/1 188/2/1
f 206/4/1 190/4/1 189/4/1
f 206/2/1 189/2/1 205/2/1
f 207/4/1 190/4/1 206/4/1
f 210/4/1 209/4/1 208/4/1
f 211/4/1 209/4/1 210/4/1
f 212/4/1 209/4/1 211/4/1
f 215/2/1 214/2/1 213/2/1
f 216/2/1 214/2/1 215/2/1
f 229/4/1 224/4/1 223/4/1
f 230/1/1 225/1/1 224/1/1
f 230/4/1 224/4/1 229/4/1
f 231/1/1 225/1/1 230/1/1
f 232/2/1 227/2/1 226/2/1
f 233/4/1 228/4/1 227/4/1
f 233/2/1 227/2/1 232/2/1
f 234/4/1 228/4/1 233/4/1
f 235/4/1 218/4/1 217/4/1
f 236/2/1 219/2/1 218/2/1
f 236/4/1 218/4/1 235/4/1
f 237/2/1 219/2/1 236/2/1
f 238/1/1 221/1/1 220/1/1
f 239/4/1 222/4/1 221/4/1
f 239/1/1 221/1/1 238/1/1
f 240/4/1 222/4/1 239/4/1
f 243/4/1 242/4/1 241/4/1
f 244/4/1 242/4/1 243/4/1
f 245/4/1 242/4/1 244/4/1
f 246/4/1 242/4/1 245/4/1
f 247/4/1 242/4/1 246/4/1
f 248/4/1 242/4/1 247/4/1
f 249/4/1 242/4/1 248/4/1
f 256/4/1 251/4/1 250/4/1
f 257/2/1 252/2/1 251/2/1
f 257/4/1 251/4/1 256/4/1
f 258/1/1 255/1/1 254/1/1
f 259/1/1 257/1/1 256/1/1
f 260/2/1 252/2/1 257/2/1
f 260/1/1 257/1/1 259/1/1
f 261/2/1 252/2/1 260/2/1
f 262/2/1 254/2/1 253/2/1
f 263/1/1 258/1/1 254/1/1
f 263/2/1 254/2/1 262/2/1
f 264/1/1 258/1/1 263/1/1
f 265/4/2 266/4/2 267/4/2
f 267/4/2 266/4/2 268/4/2
f 268/4/2 266/4/2 269/4/2
f 269/4/2 266/4/2 270/4/2
f 270/4/2 266/4/2 271/4/2
f 271/4/2 266/4/2 272/4/2
f 272/4/2 266/4/2 273/4/2
f 274/1/2 275/1/2 280/1/2
f 278/1/2 279/1/2 281/1/2
f 280/1/2 275/1/2 282/1/2
f 275/2/2 276/2/2 283/2/2
f 282/1/2 275/1/2 283/1/2
f 283/2/2 276/2/2 284/2/2
f 277/2/2 278/2/2 285/2/2
f 278/1/2 281/1/2 286/1/2
f 285/2/2 278/2/2 286/2/2
f 286/1/2 281/1/2 287/1/2
f 288/4/2 289/4/2 290/4/2
f 290/4/2 289/4/2 291/4/2
f 291/4/2 289/4/2 292/4/2
f 302/4/2 303/4/2 305/4/2
f 303/1/2 304/1/2 306/1/2
f 305/4/2 303/4/2 306/4/2
f 306/1/2 304/1/2 307/1/2
f 293/2/2 294/2/2 308/2/2
f 294/4/2 295/4/2 309/4/2
f 308/2/2 294/2/2 309/2/2
f 309/4/2 295/4/2 310/4/2
f 296/4/2 297/4/2 311/4/2
f 297/2/2 298/2/2 312/2/2
f 311/4/2 297/4/2 312/4/2
f 312/2/2 298/2/2 313/2/2
f 299/1/2 300/1/2 314/1/2
f 300/4/2 301/4/2 315/4/2
f 314/1/2 300/1/2 315/1/2
f 315/4/2 301/4/2 316/4/2
f 317/4/2 318/4/2 324/4/2
f 324/4/2 318/4/2 325/4/2
f 319/3/2 320/3/2 328/3/2
f 328/3/2 320/3/2 329/3/2
f 326/2/2 327/2/2 333/2/2
f 327/4/2 328/4/2 334/4/2
f 333/2/2 327/2/2 334/2/2
f 334/4/2 328/4/2 335/4/2
f 330/4/2 331/4/2 336/4/2
f 331/2/2 332/2/2 337/2/2
f 336/4/2 331/4/2 337/4/2
f 337/2/2 332/2/2 338/2/2
f 321/1/2 322/1/2 339/1/2
f 322/4/2 323/4/2 340/4/2
f 339/1/2 322/1/2 340/1/2
f 340/4/2 323/4/2 341/4/2
f 317/4/2 324/4/2 342/4/2
f 324/1/2 325/1/2 343/1/2
f 342/4/2 324/4/2 343/4/2
f 343/1/2 325/1/2 344/1/2
f 345/2/2 346/2/2 351/2/2
f 346/4/2 347/4/2 352/4/2
f 351/2/2 346/2/2 352/2/2
f 352/4/2 347/4/2 353/4/2
f 348/4/2 349/4/2 354/4/2
f 349/2/2 350/2/2 355/2/2
f 354/4/2 349/4/2 355/4/2
f 355/2/2 350/2/2 356/2/2
f 357/5/2 358/5/2 361/5/2
f 361/5/2 358/5/2 362/5/2
f 359/5/2 360/5/2 363/5/2
f 363/5/2 360/5/2 364/5/2
f 365/4/2 366/4/2 369/4/2
f 369/4/2 366/4/2 370/4/2
f 367/4/2 368/4/2 371/4/2
f 371/4/2 368/4/2 372/4/2
f 373/4/2 374/4/2 377/4/2
f 374/5/2 375/5/2 378/5/2
f 377/4/2 374/4/2 378/4/2
f 375/4/2 376/4/2 379/4/2
f 378/5/2 375/5/2 379/5/2
f 379/4/2 376/4/2 380/4/2
f 381/2/2 382/2/2 386/2/2
f 386/2/2 382/2/2 387/2/2
f 387/2/2 382/2/2 388/2/2
f 383/2/2 384/2/2 391/2/2
f 391/2/2 384/2/2 392/2/2
f 392/2/2 384/2/2 393/2/2
f 385/2/2 386/2/2 395/2/2
f 386/2/2 387/2/2 395/2/2
f 388/5/2 389/5/2 396/5/2
f 395/2/2 387/2/2 396/2/2
f 387/5/2 388/5/2 396/5/2
f 396/5/2 389/5/2 397/5/2
f 391/5/2 392/5/2 398/5/2
f 390/5/2 391/5/2 398/5/2
f 393/2/2 394/2/2 399/2/2
f 392/2/2 393/2/2 399/2/2
f 398/5/2 392/5/2 399/5/2
f 399/2/2 394/2/2 400/2/2
f 385/2/2 395/2/2 401/2/2
f 397/5/2 398/5/2 402/5/2
f 401/2/2 395/2/2 402/2/2
f 396/5/2 397/5/2 402/5/2
f 399/5/2 400/5/2 402/5/2
f 398/5/2 399/5/2 402/5/2
f 395/5/2 396/5/2 402/5/2
f 400/2/2 394/2/2 403/2/2
f 402/5/2 400/5/2 403/5/2
f 403/2/2 394/2/2 404/2/2
f 405/4/2 406/4/2 407/4/2
f 407/4/2 406/4/2 408/4/2
f 408/4/2 406/4/2 409/4/2
f 409/4/2 406/4/2 410/4/2
f 408/5/2 409/5/2 411/5/2
f 411/5/2 409/5/2 412/5/2
f 413/4/2 414/4/2 417/4/2
f 417/4/2 414/4/2 418/4/2
f 415/4/2 416/4/2 419/4/2
f 419/4/2 416/4/2 420/4/2
f 421/4/2 422/4/2 424/4/2
f 424/4/2 422/4/2 425/4/2
f 424/2/2 425/2/2 427/2/2
f 427/2/2 425/2/2 428/2/2
f 423/4/2 424/4/2 429/4/2
f 424/2/2 427/2/2 430/2/2
f 429/4/2 424/4/2 430/4/2
f 430/2/2 427/2/2 431/2/2
f 428/2/2 425/2/2 432/2/2
f 425/4/2 426/4/2 433/4/2
f 432/2/2 425/2/2 433/2/2
f 433/4/2 426/4/2 434/4/2
f 435/4/2 436/4/2 441/4/2
f 441/4/2 436/4/2 442/4/2
f 437/4/2 438/4/2 443/4/2
f 443/4/2 438/4/2 444/4/2
f 439/4/2 440/4/2 445/4/2
f 445/4/2 440/4/2 446/4/2
f 441/1/2 442/1/2 447/1/2
f 447/1/2 442/1/2 448/1/2
f 443/2/2 444/2/2 449/2/2
f 449/2/2 444/2/2 450/2/2
f 445/1/2 446/1/2 451/1/2
f 451/1/2 446/1/2 452/1/2
f 453/4/2 454/4/2 463/4/2
f 454/1/2 455/1/2 464/1/2
f 463/4/2 454/4/2 464/4/2
f 464/1/2 455/1/2 465/1/2
f 456/1/2 457/1/2 466/1/2
f 466/1/2 457/1/2 467/1/2
f 458/1/2 459/1/2 468/1/2
f 468/1/2 459/1/2 469/1/2
f 460/1/2 461/1/2 470/1/2
f 461/4/2 462/4/2 471/4/2
f 470/1/2 461/1/2 471/1/2
f 471/4/2 462/4/2 472/4/2
f 473/4/2 474/4/2 483/4/2
f 474/1/2 475/1/2 484/1/2
f 483/4/2 474/4/2 484/4/2
f 484/1/2 475/1/2 485/1/2
f 476/1/2 477/1/2 486/1/2
f 486/1/2 477/1/2 487/1/2
f 478/1/2 479/1/2 488/1/2
f 488/1/2 479/1/2 489/1/2
f 480/1/2 481/1/2 490/1/2
f 481/4/2 482/4/2 491/4/2
f 490/1/2 481/1/2 491/1/2
f 491/4/2 482/4/2 492/4/2
f 493/4/2 494/4/2 501/4/2
f 501/4/2 494/4/2 502/4/2
f 495/4/2 496/4/2 503/4/2
f 503/4/2 496/4/2 504/4/2
f 497/4/2 498/4/2 505/4/2
f 505/4/2 498/4/2 506/4/2
f 499/4/2 500/4/2 507/4/2
f 507/4/2 500/4/2 508/4/2
f 493/4/2 501/4/2 509/4/2
f 501/1/2 502/1/2 510/1/2
f 509/4/2 501/4/2 510/4/2
f 510/1/2 502/1/2 511/1/2
f 503/1/2 504/1/2 512/1/2
f 512/1/2 504/1/2 513/1/2
f 505/1/2 506/1/2 514/1/2
f 514/1/2 506/1/2 515/1/2
f 507/1/2 508/1/2 516/1/2
f 508/4/2 500/4/2 517/4/2
f 516/1/2 508/1/2 517/1/2
f 517/4/2 500/4/2 518/4/2
f 521/4/3 520/4/3 519/4/3
f 522/4/3 520/4/3 521/4/3
f 523/4/3 520/4/3 522/4/3
f 525/1/3 522/1/3 521/1/3
f 525/4/3 524/4/3 523/4/3
f 525/4/3 523/4/3 522/4/3
f 526/4/3 524/4/3 525/4/3
f 527/4/3 524/4/3 526/4/3
f 529/1/3 526/1/3 525/1/3
f 529/4/3 528/4/3 527/4/3
f 529/4/3 527/4/3 526/4/3
f 530/4/3 528/4/3 529/4/3
f 531/4/3 521/4/3 519/4/3
f 532/1/3 525/1/3 521/1/3
f 532/4/3 521/4/3 531/4/3
f 532/1/3 529/1/3 525/1/3
f 532/1/3 530/1/3 529/1/3
f 533/4/3 528/4/3 530/4/3
f 533/1/3 530/1/3 532/1/3
f 534/4/3 528/4/3 533/4/3
f 535/4/3 533/4/3 532/4/3
f 536/4/3 533/4/3 535/4/3
f 537/4/3 533/4/3 536/4/3
f 538/2/3 536/2/3 535/2/3
f 539/2/3 536/2/3 538/2/3
f 542/4/3 539/4/3 538/4/3
f 542/4/3 540/4/3 539/4/3
f 543/4/3 540/4/3 542/4/3
f 544/4/3 540/4/3 543/4/3
f 546/4/3 542/4/3 541/4/3
f 546/4/3 543/4/3 542/4/3
f 547/1/3 544/1/3 543/1/3
f 547/4/3 543/4/3 546/4/3
f 548/1/3 547/1/3 546/1/3
f 548/1/3 544/1/3 547/1/3
f 549/4/3 545/4/3 544/4/3
f 549/1/3 544/1/3 548/1/3
f 550/1/3 548/1/3 546/1/3
f 551/4/3 549/4/3 548/4/3
f 551/1/3 548/1/3 550/1/3
f 552/4/3 549/4/3 551/4/3
f 553/4/3 545/4/3 549/4/3
f 553/4/3 549/4/3 552/4/3
f 554/4/3 546/4/3 541/4/3
f 554/1/3 550/1/3 546/1/3
f 555/4/3 552/4/3 551/4/3
f 555/1/3 550/1/3 554/1/3
f 555/4/3 551/4/3 550/4/3
f 556/4/3 552/4/3 555/4/3
f 557/4/3 552/4/3 556/4/3
f 558/4/3 554/4/3 541/4/3
f 558/4/3 555/4/3 554/4/3
f 558/4/3 556/4/3 555/4/3
f 559/4/3 556/4/3 558/4/3
f 563/1/3 562/1/3 561/1/3
f 565/1/3 564/1/3 563/1/3
f 567/4/3 561/4/3 560/4/3
f 568/1/3 566/1/3 565/1/3
f 568/4/3 561/4/3 567/4/3
f 568/1/3 563/1/3 561/1/3
f 568/1/3 565/1/3 563/1/3
f 569/1/3 566/1/3 568/1/3
f 573/1/3 572/1/3 571/1/3
f 574/1/3 572/1/3 573/1/3
f 575/1/3 573/1/3 571/1/3
f 576/1/3 573/1/3 575/1/3
f 577/4/3 571/4/3 570/4/3
f 578/1/3 575/1/3 571/1/3
f 578/4/3 571/4/3 577/4/3
f 579/1/3 575/1/3 578/1/3
f 582/2/3 581/2/3 580/2/3
f 583/2/3 581/2/3 582/2/3
f 584/2/3 581/2/3 583/2/3
f 585/2/3 583/2/3 582/2/3
f 586/2/3 583/2/3 585/2/3
f 587/2/3 585/2/3 582/2/3
f 589/2/3 587/2/3 582/2/3
f 589/2/3 588/2/3 587/2/3
f 590/2/3 588/2/3 589/2/3
f 592/2/3 590/2/3 589/2/3
f 592/2/3 591/2/3 590/2/3
f 593/2/3 591/2/3 592/2/3
f 597/5/3 595/5/3 594/5/3
f 598/5/3 597/5/3 596/5/3
f 599/5/3 595/5/3 597/5/3
f 599/5/3 597/5/3 598/5/3
f 600/5/3 595/5/3 599/5/3
f 601/5/3 595/5/3 600/5/3
f 604/5/3 603/5/3 602/5/3
f 605/5/3 603/5/3 604/5/3
f 606/3/3 605/3/3 604/3/3
f 607/3/3 605/3/3 606/3/3
f 611/4/3 609/4/3 608/4/3
f 612/4/3 609/4/3 611/4/3
f 613/2/3 612/2/3 611/2/3
f 614/2/3 612/2/3 613/2/3
f 615/2/3 613/2/3 611/2/3
f 617/4/3 611/4/3 610/4/3
f 618/2/3 616/2/3 615/2/3
f 618/4/3 611/4/3 617/4/3
f 618/2/3 615/2/3 611/2/3
f 619/2/3 616/2/3 618/2/3
f 620/4/3 619/4/3 618/4/3
f 621/4/3 619/4/3 620/4/3
f 624/4/3 623/4/3 622/4/3
f 625/4/3 623/4/3 624/4/3
f 628/4/3 627/4/3 626/4/3
f 629/4/3 627/4/3 628/4/3
f 632/4/3 631/4/3 630/4/3
f 634/4/3 632/4/3 630/4/3
f 634/5/3 633/5/3 632/5/3
f 635/5/3 633/5/3 634/5/3
f 636/4/3 634/4/3 630/4/3
f 637/4/3 634/4/3 636/4/3
f 641/2/3 639/2/3 638/2/3
f 642/2/3 639/2/3 641/2/3
f 643/2/3 639/2/3 642/2/3
f 644/2/3 641/2/3 640/2/3
f 644/2/3 642/2/3 641/2/3
f 645/5/3 643/5/3 642/5/3
f 645/2/3 642/2/3 644/2/3
f 646/2/3 644/2/3 640/2/3
f 647/5/3 645/5/3 644/5/3
f 647/2/3 644/2/3 646/2/3
f 648/5/3 643/5/3 645/5/3
f 648/5/3 645/5/3 647/5/3
f 650/5/3 648/5/3 647/5/3
f 651/5/3 648/5/3 650/5/3
f 652/4/3 649/4/3 648/4/3
f 652/5/3 648/5/3 651/5/3
f 653/4/3 649/4/3 652/4/3
f 655/5/3 652/5/3 651/5/3
f 655/5/3 653/5/3 652/5/3
f 656/5/3 653/5/3 655/5/3
f 657/5/3 653/5/3 656/5/3
f 659/5/3 655/5/3 654/5/3
f 659/5/3 656/5/3 655/5/3
f 660/4/3 657/4/3 656/4/3
f 660/5/3 656/5/3 659/5/3
f 661/4/3 657/4/3 660/4/3
f 662/2/3 659/2/3 658/2/3
f 662/5/3 660/5/3 659/5/3
f 663/5/3 660/5/3 662/5/3
f 664/2/3 662/2/3 658/2/3
f 664/2/3 663/2/3 662/2/3
f 665/2/3 663/2/3 664/2/3
f 666/5/3 660/5/3 663/5/3
f 666/2/3 663/2/3 665/2/3
f 667/5/3 660/5/3 666/5/3
f 668/2/3 666/2/3 665/2/3
f 668/2/3 667/2/3 666/2/3
f 669/2/3 667/2/3 668/2/3
f 672/4/3 671/4/3 670/4/3
f 673/4/3 671/4/3 672/4/3
f 676/4/3 675/4/3 674/4/3
f 677/4/3 675/4/3 676/4/3
f 680/5/3 679/5/3 678/5/3
f 681/5/3 679/5/3 680/5/3
f 684/5/3 683/5/3 682/5/3
f 685/5/3 683/5/3 684/5/3
f 688/2/3 687/2/3 686/2/3
f 689/2/3 687/2/3 688/2/3
f 690/4/3 689/4/3 688/4/3
f 691/4/3 689/4/3 690/4/3
f 694/4/3 693/4/3 692/4/3
f 695/4/3 693/4/3 694/4/3
f 696/2/3 695/2/3 694/2/3
f 697/2/3 695/2/3 696/2/3
f 700/5/3 699/5/3 698/5/3
f 701/5/3 699/5/3 700/5/3
f 705/1/3 704/1/3 703/1/3
f 707/4/3 703/4/3 702/4/3
f 708/1/3 706/1/3 705/1/3
f 708/4/3 703/4/3 707/4/3
f 708/1/3 705/1/3 703/1/3
f 709/1/3 706/1/3 708/1/3
f 711/1/3 710/1/3 709/1/3
f 711/1/3 709/1/3 708/1/3
f 712/1/3 710/1/3 711/1/3
f 716/1/3 715/1/3 714/1/3
f 717/1/3 715/1/3 716/1/3
f 718/1/3 716/1/3 714/1/3
f 719/1/3 716/1/3 718/1/3
f 720/4/3 714/4/3 713/4/3
f 721/1/3 718/1/3 714/1/3
f 721/4/3 714/4/3 720/4/3
f 722/1/3 718/1/3 721/1/3
f 726/4/3 724/4/3 723/4/3
f 727/1/3 725/1/3 724/1/3
f 729/4/3 724/4/3 726/4/3
f 730/1/3 728/1/3 727/1/3
f 730/4/3 724/4/3 729/4/3
f 730/1/3 727/1/3 724/1/3
f 731/1/3 728/1/3 730/1/3
f 735/2/3 733/2/3 732/2/3
f 736/1/3 734/1/3 733/1/3
f 736/2/3 733/2/3 735/2/3
f 737/1/3 734/1/3 736/1/3
f 738/1/3 734/1/3 737/1/3
f 739/1/3 736/1/3 735/1/3
f 739/1/3 737/1/3 736/1/3
f 740/1/3 737/1/3 739/1/3
f 744/1/3 743/1/3 742/1/3
f 746/1/3 745/1/3 744/1/3
f 748/4/3 742/4/3 741/4/3
f 749/1/3 747/1/3 746/1/3
f 749/4/3 742/4/3 748/4/3
f 749/1/3 744/1/3 742/1/3
f 749/1/3 746/1/3 744/1/3
f 750/1/3 747/1/3 749/1/3
f 754/1/3 753/1/3 752/1/3
f 755/1/3 753/1/3 754/1/3
f 756/1/3 754/1/3 752/1/3
f 757/1/3 754/1/3 756/1/3
f 758/4/3 752/4/3 751/4/3
f 759/1/3 756/1/3 752/1/3
f 759/4/3 752/4/3 758/4/3
f 760/1/3 756/1/3 759/1/3
f 762/1/4 763/1/4 764/1/4
f 764/1/4 765/1/4 766/1/4
f 761/4/4 762/4/4 768/4/4
f 766/1/4 767/1/4 769/1/4
f 768/4/4 762/4/4 769/4/4
f 762/1/4 764/1/4 769/1/4
f 764/1/4 766/1/4 769/1/4
f 769/1/4 767/1/4 770/1/4
f 771/4/4 772/4/4 773/4/4
f 773/4/4 772/4/4 774/4/4
f 775/4/4 776/4/4 777/4/4
f 777/4/4 776/4/4 778/4/4
f 780/1/4 781/1/4 782/1/4
f 782/1/4 781/1/4 783/1/4
f 780/1/4 782/1/4 784/1/4
f 784/1/4 782/1/4 785/1/4
f 779/4/4 780/4/4 786/4/4
f 780/1/4 784/1/4 787/1/4
f 786/4/4 780/4/4 787/4/4
f 787/1/4 784/1/4 788/1/4
f 789/4/4 790/4/4 792/4/4
f 790/1/4 791/1/4 793/1/4
f 793/1/4 791/1/4 794/1/4
f 792/4/4 790/4/4 795/4/4
f 790/1/4 793/1/4 796/1/4
f 795/4/4 790/4/4 796/4/4
f 796/1/4 793/1/4 797/1/4
f 798/4/4 799/4/4 801/4/4
f 799/1/4 800/1/4 802/1/4
f 801/4/4 799/4/4 804/4/4
f 799/1/4 802/1/4 805/1/4
f 804/4/4 799/4/4 805/4/4
f 802/1/4 803/1/4 805/1/4
f 805/1/4 803/1/4 806/1/4
f 808/1/4 809/1/4 810/1/4
f 807/4/4 808/4/4 812/4/4
f 810/1/4 811/1/4 813/1/4
f 812/4/4 808/4/4 813/4/4
f 808/1/4 810/1/4 813/1/4
f 813/1/4 811/1/4 814/1/4
f 814/1/4 815/1/4 816/1/4
f 813/1/4 814/1/4 816/1/4
f 816/1/4 815/1/4 817/1/4
f 819/1/4 820/1/4 821/1/4
f 821/1/4 820/1/4 822/1/4
f 819/1/4 821/1/4 823/1/4
f 823/1/4 821/1/4 824/1/4
f 818/4/4 819/4/4 825/4/4
f 819/1/4 823/1/4 826/1/4
f 825/4/4 819/4/4 826/4/4
f 826/1/4 823/1/4 827/1/4
f 828/5/4 829/5/4 830/5/4
f 830/5/4 829/5/4 831/5/4
f 830/3/4 831/3/4 832/3/4
f 832/3/4 831/3/4 833/3/4
f 834/2/4 835/2/4 836/2/4
f 836/2/4 835/2/4 837/2/4
f 836/4/4 837/4/4 838/4/4
f 838/4/4 837/4/4 839/4/4
f 840/4/4 841/4/4 842/4/4
f 842/4/4 841/4/4 843/4/4
f 842/2/4 843/2/4 844/2/4
f 844/2/4 843/2/4 845/2/4
f 846/5/4 847/5/4 848/5/4
f 848/5/4 847/5/4 849/5/4
f 850/5/4 851/5/4 852/5/4
f 852/5/4 851/5/4 853/5/4
f 854/4/4 855/4/4 856/4/4
f 856/4/4 855/4/4 857/4/4
f 858/4/4 859/4/4 860/4/4
f 860/4/4 859/4/4 861/4/4
f 862/2/4 863/2/4 865/2/4
f 865/2/4 863/2/4 866/2/4
f 866/2/4 863/2/4 867/2/4
f 864/2/4 865/2/4 868/2/4
f 865/2/4 866/2/4 868/2/4
f 866/5/4 867/5/4 869/5/4
f 868/2/4 866/2/4 869/2/4
f 864/2/4 868/2/4 870/2/4
f 868/5/4 869/5/4 871/5/4
f 870/2/4 868/2/4 871/2/4
f 869/5/4 867/5/4 872/5/4
f 871/5/4 869/5/4 872/5/4
f 871/5/4 872/5/4 874/5/4
f 874/5/4 872/5/4 875/5/4
f 872/4/4 873/4/4 876/4/4
f 875/5/4 872/5/4 876/5/4
f 876/4/4 873/4/4 877/4/4
f 875/5/4 876/5/4 879/5/4
f 876/5/4 877/5/4 879/5/4
f 879/5/4 877/5/4 880/5/4
f 880/5/4 877/5/4 881/5/4
f 878/5/4 879/5/4 883/5/4
f 879/5/4 880/5/4 883/5/4
f 880/4/4 881/4/4 884/4/4
f 883/5/4 880/5/4 884/5/4
f 884/4/4 881/4/4 885/4/4
f 882/2/4 883/2/4 886/2/4
f 883/5/4 884/5/4 886/5/4
f 886/5/4 884/5/4 887/5/4
f 882/2/4 886/2/4 888/2/4
f 886/2/4 887/2/4 888/2/4
f 888/2/4 887/2/4 889/2/4
f 887/5/4 884/5/4 890/5/4
f 889/2/4 887/2/4 890/2/4
f 890/5/4 884/5/4 891/5/4
f 889/2/4 890/2/4 892/2/4
f 890/2/4 891/2/4 892/2/4
f 892/2/4 891/2/4 893/2/4
f 894/4/4 895/4/4 896/4/4
f 894/4/4 896/4/4 898/4/4
f 896/5/4 897/5/4 898/5/4
f 898/5/4 897/5/4 899/5/4
f 894/4/4 898/4/4 900/4/4
f 900/4/4 898/4/4 901/4/4
f 902/4/4 903/4/4 904/4/4
f 904/4/4 903/4/4 905/4/4
f 906/4/4 907/4/4 908/4/4
f 908/4/4 907/4/4 909/4/4
f 910/4/4 911/4/4 913/4/4
f 913/4/4 911/4/4 914/4/4
f 913/2/4 914/2/4 915/2/4
f 915/2/4 914/2/4 916/2/4
f 913/2/4 915/2/4 917/2/4
f 912/4/4 913/4/4 919/4/4
f 917/2/4 918/2/4 920/2/4
f 919/4/4 913/4/4 920/4/4
f 913/2/4 917/2/4 920/2/4
f 920/2/4 918/2/4 921/2/4
f 920/4/4 921/4/4 922/4/4
f 922/4/4 921/4/4 923/4/4
f 924/5/4 925/5/4 927/5/4
f 926/5/4 927/5/4 928/5/4
f 927/5/4 925/5/4 929/5/4
f 928/5/4 927/5/4 929/5/4
f 929/5/4 925/5/4 930/5/4
f 930/5/4 925/5/4 931/5/4
f 932/2/4 933/2/4 934/2/4
f 934/2/4 933/2/4 935/2/4
f 935/2/4 933/2/4 936/2/4
f 934/2/4 935/2/4 937/2/4
f 937/2/4 935/2/4 938/2/4
f 934/2/4 937/2/4 939/2/4
f 934/2/4 939/2/4 941/2/4
f 939/2/4 940/2/4 941/2/4
f 941/2/4 940/2/4 942/2/4
f 941/2/4 942/2/4 944/2/4
f 942/2/4 943/2/4 944/2/4
f 944/2/4 943/2/4 945/2/4
f 947/1/4 948/1/4 949/1/4
f 949/1/4 950/1/4 951/1/4
f 946/4/4 947/4/4 953/4/4
f 951/1/4 952/1/4 954/1/4
f 953/4/4 947/4/4 954/4/4
f 947/1/4 949/1/4 954/1/4
f 949/1/4 951/1/4 954/1/4
f 954/1/4 952/1/4 955/1/4
f 957/1/4 958/1/4 959/1/4
f 959/1/4 958/1/4 960/1/4
f 957/1/4 959/1/4 961/1/4
f 961/1/4 959/1/4 962/1/4
f 956/4/4 957/4/4 963/4/4
f 957/1/4 961/1/4 964/1/4
f 963/4/4 957/4/4 964/4/4
f 964/1/4 961/1/4 965/1/4
f 966/4/4 967/4/4 968/4/4
f 968/4/4 967/4/4 969/4/4
f 969/4/4 967/4/4 970/4/4
f 968/1/4 969/1/4 972/1/4
f 970/4/4 971/4/4 972/4/4
f 969/4/4 970/4/4 972/4/4
f 972/4/4 971/4/4 973/4/4
f 966/4/4 968/4/4 975/4/4
f 968/1/4 972/1/4 975/1/4
f 972/1/4 973/1/4 975/1/4
f 975/1/4 973/1/4 976/1/4
f 966/4/4 975/4/4 977/4/4
f 975/4/4 976/4/4 977/4/4
f 977/4/4 976/4/4 978/4/4
f 976/1/4 973/1/4 979/1/4
f 973/4/4 974/4/4 980/4/4
f 979/1/4 973/1/4 980/1/4
f 976/1/4 979/1/4 981/1/4
f 978/4/4 976/4/4 981/4/4
f 979/4/4 980/4/4 982/4/4
f 981/1/4 979/1/4 982/1/4
f 980/4/4 974/4/4 983/4/4
f 982/4/4 980/4/4 983/4/4
f 981/4/4 982/4/4 984/4/4
f 978/4/4 981/4/4 984/4/4
f 984/4/4 982/4/4 985/4/4
f 978/4/4 984/4/4 986/4/4
f 978/4/4 986/4/4 988/4/4
f 986/4/4 987/4/4 988/4/4
f 988/4/4 987/4/4 989/4/4
f 978/4/4 988/4/4 992/4/4
f 988/1/4 989/1/4 993/1/4
f 992/4/4 988/4/4 993/4/4
f 989/4/4 990/4/4 994/4/4
f 993/1/4 989/1/4 994/1/4
f 994/4/4 990/4/4 995/4/4
f 992/1/4 993/1/4 996/1/4
f 993/1/4 994/1/4 996/1/4
f 994/1/4 995/1/4 996/1/4
f 995/4/4 990/4/4 997/4/4
f 996/1/4 995/1/4 997/1/4
f 992/1/4 996/1/4 998/1/4
f 996/4/4 997/4/4 999/4/4
f 998/1/4 996/1/4 999/1/4
f 999/4/4 997/4/4 1000/4/4
f 997/4/4 990/4/4 1001/4/4
f 1000/4/4 997/4/4 1001/4/4
f 991/4/4 992/4/4 1002/4/4
f 992/1/4 998/1/4 1002/1/4
f 999/4/4 1000/4/4 1003/4/4
f 1002/1/4 998/1/4 1003/1/4
f 998/4/4 999/4/4 1003/4/4
f 1003/4/4 1000/4/4 1004/4/4
f 1004/4/4 1000/4/4 1005/4/4
f 991/4/4 1002/4/4 1006/4/4
f 1002/4/4 1003/4/4 1006/4/4
f 1003/4/4 1004/4/4 1006/4/4
f 1006/4/4 1004/4/4 1007/4/4
f 1012/4/5 1009/4/5 1008/4/5
f 1013/4/5 1009/4/5 1012/4/5
f 1014/4/5 1012/4/5 1008/4/5
f 1015/1/5 1013/1/5 1012/1/5
f 1015/4/5 1012/4/5 1014/4/5
f 1016/4/5 1009/4/5 1013/4/5
f 1016/1/5 1013/1/5 1015/1/5
f 1017/4/5 1009/4/5 1016/4/5
f 1018/4/5 1009/4/5 1017/4/5
f 1019/4/5 1011/4/5 1010/4/5
f 1020/4/5 1011/4/5 1019/4/5
f 1021/4/5 1011/4/5 1020/4/5
f 1022/4/5 1011/4/5 1021/4/5
f 1024/4/5 1016/4/5 1015/4/5
f 1024/4/5 1017/4/5 1016/4/5
f 1025/4/5 1021/4/5 1020/4/5
f 1027/4/5 1024/4/5 1023/4/5
f 1028/4/5 1024/4/5 1027/4/5
f 1029/4/5 1026/4/5 1025/4/5
f 1029/4/5 1025/4/5 1020/4/5
f 1030/4/5 1026/4/5 1029/4/5
f 1032/4/5 1024/4/5 1028/4/5
f 1033/4/5 1029/4/5 1020/4/5
f 1035/4/5 1032/4/5 1031/4/5
f 1036/4/5 1017/4/5 1024/4/5
f 1036/4/5 1032/4/5 1035/4/5
f 1036/4/5 1024/4/5 1032/4/5
f 1037/4/5 1034/4/5 1033/4/5
f 1037/4/5 1033/4/5 1020/4/5
f 1038/4/5 1034/4/5 1037/4/5
f 1040/4/5 1017/4/5 1036/4/5
f 1041/4/5 1037/4/5 1020/4/5
f 1042/4/5 1037/4/5 1041/4/5
f 1044/4/5 1041/4/5 1020/4/5
f 1044/1/5 1042/1/5 1041/1/5
f 1045/4/5 1043/4/5 1042/4/5
f 1045/1/5 1042/1/5 1044/1/5
f 1046/4/5 1040/4/5 1039/4/5
f 1047/4/5 1017/4/5 1040/4/5
f 1047/4/5 1040/4/5 1046/4/5
f 1048/4/5 1044/4/5 1020/4/5
f 1048/4/5 1045/4/5 1044/4/5
f 1049/4/5 1043/4/5 1045/4/5
f 1049/4/5 1045/4/5 1048/4/5
f 1054/4/5 1051/4/5 1050/4/5
f 1055/2/5 1052/2/5 1051/2/5
f 1055/4/5 1051/4/5 1054/4/5
f 1056/4/5 1053/4/5 1052/4/5
f 1056/2/5 1052/2/5 1055/2/5
f 1057/4/5 1053/4/5 1056/4/5
f 1059/2/5 1055/2/5 1054/2/5
f 1059/2/5 1056/2/5 1055/2/5
f 1059/2/5 1057/2/5 1056/2/5
f 1060/2/5 1057/2/5 1059/2/5
f 1062/2/5 1060/2/5 1059/2/5
f 1062/2/5 1061/2/5 1060/2/5
f 1062/2/5 1059/2/5 1058/2/5
f 1063/2/5 1061/2/5 1062/2/5
f 1064/2/5 1061/2/5 1063/2/5
f 1065/2/5 1061/2/5 1064/2/5
f 1066/5/5 1063/5/5 1062/5/5
f 1067/2/5 1064/2/5 1063/2/5
f 1067/5/5 1063/5/5 1066/5/5
f 1068/5/5 1065/5/5 1064/5/5
f 1068/2/5 1064/2/5 1067/2/5
f 1069/5/5 1065/5/5 1068/5/5
f 1070/2/5 1067/2/5 1066/2/5
f 1070/2/5 1068/2/5 1067/2/5
f 1070/2/5 1069/2/5 1068/2/5
f 1071/2/5 1069/2/5 1070/2/5
f 1072/2/5 1069/2/5 1071/2/5
f 1073/2/5 1069/2/5 1072/2/5
f 1074/2/5 1072/2/5 1071/2/5
f 1074/5/5 1073/5/5 1072/5/5
f 1075/5/5 1073/5/5 1074/5/5
f 1076/5/5 1071/5/5 1070/5/5
f 1077/2/5 1074/2/5 1071/2/5
f 1077/5/5 1071/5/5 1076/5/5
f 1077/2/5 1075/2/5 1074/2/5
f 1078/2/5 1077/2/5 1076/2/5
f 1079/2/5 1075/2/5 1077/2/5
f 1079/2/5 1077/2/5 1078/2/5
f 1080/4/5 1079/4/5 1078/4/5
f 1081/4/5 1079/4/5 1080/4/5
f 1085/5/5 1083/5/5 1082/5/5
f 1086/3/5 1084/3/5 1083/3/5
f 1086/5/5 1083/5/5 1085/5/5
f 1087/3/5 1084/3/5 1086/3/5
f 1088/5/5 1085/5/5 1082/5/5
f 1089/5/5 1085/5/5 1088/5/5
f 1094/4/5 1091/4/5 1090/4/5
f 1095/4/5 1091/4/5 1094/4/5
f 1096/4/5 1093/4/5 1092/4/5
f 1097/4/5 1093/4/5 1096/4/5
f 1102/4/5 1099/4/5 1098/4/5
f 1103/4/5 1099/4/5 1102/4/5
f 1104/4/5 1101/4/5 1100/4/5
f 1105/4/5 1101/4/5 1104/4/5
f 1106/4/6 1107/4/6 1108/4/6
f 1108/4/6 1107/4/6 1109/4/6
f 1110/2/6 1111/2/6 1114/2/6
f 1114/2/6 1111/2/6 1115/2/6
f 1112/5/6 1113/5/6 1118/5/6
f 1116/5/6 1117/5/6 1119/5/6
f 1118/5/6 1113/5/6 1120/5/6
f 1113/2/6 1114/2/6 1121/2/6
f 1120/5/6 1113/5/6 1121/5/6
f 1114/2/6 1115/2/6 1121/2/6
f 1115/2/6 1116/2/6 1121/2/6
f 1116/5/6 1119/5/6 1122/5/6
f 1121/2/6 1116/2/6 1122/2/6
f 1122/5/6 1119/5/6 1123/5/6
f 1124/2/6 1125/2/6 1127/2/6
f 1125/2/6 1126/2/6 1127/2/6
f 1127/2/6 1126/2/6 1128/2/6
f 1128/2/6 1126/2/6 1129/2/6
f 1124/2/6 1127/2/6 1130/2/6
f 1130/2/6 1127/2/6 1131/2/6
f 1132/5/6 1133/5/6 1136/5/6
f 1134/5/6 1135/5/6 1137/5/6
f 1133/2/6 1134/2/6 1138/2/6
f 1134/5/6 1137/5/6 1139/5/6
f 1138/2/6 1134/2/6 1139/2/6
f 1139/5/6 1137/5/6 1140/5/6
f 1136/5/6 1133/5/6 1141/5/6
f 1133/2/6 1138/2/6 1142/2/6
f 1141/5/6 1133/5/6 1142/5/6
f 1142/2/6 1138/2/6 1143/2/6
f 1143/2/6 1138/2/6 1144/2/6
f 1144/2/6 1138/2/6 1145/2/6
f 1144/4/6 1145/4/6 1146/4/6
f 1146/4/6 1145/4/6 1147/4/6
f 1148/4/6 1149/4/6 1150/4/6
f 1150/4/6 1149/4/6 1151/4/6
f 1150/1/6 1151/1/6 1152/1/6
f 1152/1/6 1151/1/6 1153/1/6
f 1154/1/6 1155/1/6 1156/1/6
f 1156/1/6 1155/1/6 1157/1/6
f 1158/2/6 1159/2/6 1160/2/6
f 1160/2/6 1159/2/6 1161/2/6
f 1160/5/6 1161/5/6 1162/5/6
f 1162/5/6 1161/5/6 1163/5/6
f 1164/5/6 1165/5/6 1166/5/6
f 1166/5/6 1165/5/6 1167/5/6
f 1166/2/6 1167/2/6 1168/2/6
f 1168/2/6 1167/2/6 1169/2/6
f 1170/1/6 1171/1/6 1172/1/6
f 1172/1/6 1171/1/6 1173/1/6
f 1174/1/6 1175/1/6 1176/1/6
f 1176/1/6 1175/1/6 1177/1/6
f 1176/4/6 1177/4/6 1178/4/6
f 1178/4/6 1177/4/6 1179/4/6
f 1180/4/6 1181/4/6 1184/4/6
f 1184/4/6 1181/4/6 1185/4/6
f 1182/4/6 1183/4/6 1186/4/6
f 1186/4/6 1183/4/6 1187/4/6
f 1184/1/6 1185/1/6 1188/1/6
f 1188/1/6 1185/1/6 1189/1/6
f 1186/1/6 1187/1/6 1190/1/6
f 1190/1/6 1187/1/6 1191/1/6
f 1192/1/6 1193/1/6 1196/1/6
f 1196/1/6 1193/1/6 1197/1/6
f 1194/1/6 1195/1/6 1198/1/6
f 1198/1/6 1195/1/6 1199/1/6
f 1200/2/6 1201/2/6 1202/2/6
f 1202/2/6 1201/2/6 1203/2/6
f 1202/4/6 1203/4/6 1204/4/6
f 1204/4/6 1203/4/6 1205/4/6
f 1206/4/6 1207/4/6 1210/4/6
f 1210/4/6 1207/4/6 1211/4/6
f 1208/4/6 1209/4/6 1212/4/6
f 1212/4/6 1209/4/6 1213/4/6
f 1210/2/6 1211/2/6 1214/2/6
f 1214/2/6 1211/2/6 1215/2/6
f 1212/2/6 1213/2/6 1216/2/6
f 1216/2/6 1213/2/6 1217/2/6
f 1218/1/6 1219/1/6 1222/1/6
f 1222/1/6 1219/1/6 1223/1/6
f 1220/1/6 1221/1/6 1224/1/6
f 1224/1/6 1221/1/6 1225/1/6
f 1230/1/6 1231/1/6 1234/1/6
f 1234/1/6 1231/1/6 1235/1/6
f 1228/1/6 1229/1/6 1236/1/6
f 1236/1/6 1229/1/6 1237/1/6
f 1226/1/6 1227/1/6 1238/1/6
f 1238/1/6 1227/1/6 1239/1/6
f 1232/1/6 1233/1/6 1240/1/6
f 1240/1/6 1233/1/6 1241/1/6
f 1234/4/6 1235/4/6 1242/4/6
f 1242/4/6 1235/4/6 1243/4/6
f 1236/4/6 1237/4/6 1244/4/6
f 1244/4/6 1237/4/6 1245/4/6
f 1238/4/6 1239/4/6 1246/4/6
f 1246/4/6 1239/4/6 1247/4/6
f 1240/4/6 1241/4/6 1248/4/6
f 1248/4/6 1241/4/6 1249/4/6
f 1250/4/6 1251/4/6 1256/4/6
f 1256/4/6 1251/4/6 1257/4/6
f 1252/4/6 1253/4/6 1258/4/6
f 1258/4/6 1253/4/6 1259/4/6
f 1254/4/6 1255/4/6 1260/4/6
f 1260/4/6 1255/4/6 1261/4/6
f 1256/1/6 1257/1/6 1262/1/6
f 1262/1/6 1257/1/6 1263/1/6
f 1258/1/6 1259/1/6 1264/1/6
f 1264/1/6 1259/1/6 1265/1/6
f 1260/1/6 1261/1/6 1266/1/6
f 1266/1/6 1261/1/6 1267/1/6
f 1268/1/6 1269/1/6 1270/1/6
f 1270/1/6 1269/1/6 1271/1/6
f 1272/2/6 1273/2/6 1274/2/6
f 1274/2/6 1273/2/6 1275/2/6
f 1274/4/6 1275/4/6 1276/4/6
f 1276/4/6 1275/4/6 1277/4/6
f 1278/1/6 1279/1/6 1280/1/6
f 1280/1/6 1279/1/6 1281/1/6
f 1282/1/6 1283/1/6 1284/1/6
f 1284/1/6 1283/1/6 1285/1/6
f 1284/4/6 1285/4/6 1286/4/6
f 1286/4/6 1285/4/6 1287/4/6
f 1288/4/6 1289/4/6 1292/4/6
f 1292/4/6 1289/4/6 1293/4/6
f 1290/4/6 1291/4/6 1294/4/6
f 1294/4/6 1291/4/6 1295/4/6
f 1292/1/6 1293/1/6 1296/1/6
f 1296/1/6 1293/1/6 1297/1/6
f 1294/1/6 1295/1/6 1298/1/6
f 1298/1/6 1295/1/6 1299/1/6
f 1297/1/6 1293/1/6 1300/1/6
f 1300/1/6 1293/1/6 1301/1/6
f 1294/1/6 1298/1/6 1302/1/6
f 1302/1/6 1298/1/6 1303/1/6
f 1297/1/6 1300/1/6 1305/1/6
f 1303/1/6 1298/1/6 1306/1/6
f 1303/1/6 1306/1/6 1308/1/6
f 1306/1/6 1307/1/6 1308/1/6
f 1308/1/6 1307/1/6 1309/1/6
f 1304/1/6 1305/1/6 1310/1/6
f 1305/1/6 1300/1/6 1311/1/6
f 1310/1/6 1305/1/6 1311/1/6
f 1311/1/6 1300/1/6 1312/1/6
f 1303/1/6 1308/1/6 1313/1/6
f 1308/4/6 1309/4/6 1314/4/6
f 1313/1/6 1308/1/6 1314/1/6
f 1309/1/6 1307/1/6 1315/1/6
f 1314/4/6 1309/4/6 1315/4/6
f 1315/1/6 1307/1/6 1316/1/6
f 1311/2/6 1312/2/6 1317/2/6
f 1313/2/6 1314/2/6 1320/2/6
f 1314/2/6 1315/2/6 1320/2/6
f 1317/2/6 1318/2/6 1321/2/6
f 1311/2/6 1317/2/6 1321/2/6
f 1321/2/6 1318/2/6 1322/2/6
f 1319/2/6 1320/2/6 1323/2/6
f 1320/2/6 1315/2/6 1324/2/6
f 1323/2/6 1320/2/6 1324/2/6
f 1321/4/6 1322/4/6 1325/4/6
f 1323/4/6 1324/4/6 1326/4/6
f 1325/5/6 1326/5/6 1327/5/6
f 1327/5/6 1326/5/6 1328/5/6
f 1325/5/6 1327/5/6 1329/5/6
f 1329/5/6 1327/5/6 1330/5/6
f 1328/5/6 1326/5/6 1331/5/6
f 1331/5/6 1326/5/6 1332/5/6
f 1325/5/6 1329/5/6 1333/5/6
f 1332/5/6 1326/5/6 1336/5/6
f 1333/5/6 1334/5/6 1337/5/6
f 1335/5/6 1336/5/6 1338/5/6
f 1321/4/6 1325/4/6 1339/4/6
f 1337/5/6 1338/5/6 1339/5/6
f 1333/5/6 1337/5/6 1339/5/6
f 1325/5/6 1333/5/6 1339/5/6
f 1338/5/6 1336/5/6 1340/5/6
f 1339/5/6 1338/5/6 1340/5/6
f 1326/4/6 1324/4/6 1340/4/6
f 1336/5/6 1326/5/6 1340/5/6
f 1311/2/6 1321/2/6 1341/2/6
f 1321/4/6 1339/4/6 1341/4/6
f 1341/4/6 1339/4/6 1342/4/6
f 1340/4/6 1324/4/6 1343/4/6
f 1324/2/6 1315/2/6 1344/2/6
f 1343/4/6 1324/4/6 1344/4/6
f 1341/2/6 1342/2/6 1345/2/6
f 1311/2/6 1341/2/6 1345/2/6
f 1345/2/6 1342/2/6 1346/2/6
f 1343/2/6 1344/2/6 1347/2/6
f 1344/2/6 1315/2/6 1348/2/6
f 1347/2/6 1344/2/6 1348/2/6
f 1311/2/6 1345/2/6 1350/2/6
f 1350/2/6 1345/2/6 1351/2/6
f 1348/2/6 1315/2/6 1352/2/6
f 1352/2/6 1315/2/6 1353/2/6
f 1350/1/6 1351/1/6 1355/1/6
f 1349/1/6 1350/1/6 1355/1/6
f 1355/1/6 1351/1/6 1356/1/6
f 1353/1/6 1354/1/6 1357/1/6
f 1352/1/6 1353/1/6 1357/1/6
f 1357/1/6 1354/1/6 1358/1/6
f 1352/1/6 1357/1/6 1360/1/6
f 1356/1/6 1351/1/6 1361/1/6
f 1356/1/6 1361/1/6 1364/1/6
f 1361/1/6 1362/1/6 1364/1/6
f 1359/1/6 1360/1/6 1365/1/6
f 1360/1/6 1357/1/6 1365/1/6
f 1363/1/6 1364/1/6 1367/1/6
f 1364/1/6 1362/1/6 1368/1/6
f 1367/1/6 1364/1/6 1368/1/6
f 1365/1/6 1366/1/6 1369/1/6
f 1359/1/6 1365/1/6 1369/1/6
f 1369/1/6 1366/1/6 1370/1/6
f 1367/4/6 1368/4/6 1371/4/6
f 1371/4/6 1368/4/6 1372/4/6
f 1369/4/6 1370/4/6 1373/4/6
f 1373/4/6 1370/4/6 1374/4/6
f 1375/2/6 1376/2/6 1377/2/6
f 1377/2/6 1376/2/6 1378/2/6
f 1378/2/6 1376/2/6 1379/2/6
f 1379/2/6 1376/2/6 1380/2/6
f 1377/4/6 1378/4/6 1381/4/6
f 1381/4/6 1378/4/6 1382/4/6
f 1379/4/6 1380/4/6 1383/4/6
f 1383/4/6 1380/4/6 1384/4/6
f 1386/4/6 1387/4/6 1391/4/6
f 1385/2/6 1386/2/6 1391/2/6
f 1391/4/6 1387/4/6 1392/4/6
f 1388/4/6 1389/4/6 1393/4/6
f 1389/2/6 1390/2/6 1394/2/6
f 1393/4/6 1389/4/6 1394/4/6
f 1385/2/6 1391/2/6 1395/2/6
f 1394/2/6 1390/2/6 1398/2/6
f 1385/2/6 1395/2/6 1399/2/6
f 1395/4/6 1396/4/6 1400/4/6
f 1399/2/6 1395/2/6 1400/2/6
f 1400/4/6 1396/4/6 1401/4/6
f 1397/4/6 1398/4/6 1402/4/6
f 1398/2/6 1390/2/6 1403/2/6
f 1402/4/6 1398/4/6 1403/4/6
f 1403/2/6 1390/2/6 1404/2/6
f 1405/4/6 1406/4/6 1409/4/6
f 1409/4/6 1406/4/6 1410/4/6
f 1407/4/6 1408/4/6 1411/4/6
f 1411/4/6 1408/4/6 1412/4/6
f 1409/2/6 1410/2/6 1413/2/6
f 1410/2/6 1411/2/6 1413/2/6
f 1411/2/6 1412/2/6 1413/2/6
f 1413/2/6 1412/2/6 1414/2/6
f 1415/4/6 1416/4/6 1421/4/6
f 1416/2/6 1417/2/6 1422/2/6
f 1421/4/6 1416/4/6 1422/4/6
f 1419/4/6 1420/4/6 1423/4/6
f 1418/2/6 1419/2/6 1423/2/6
f 1423/4/6 1420/4/6 1424/4/6
f 1422/2/6 1417/2/6 1425/2/6
f 1421/2/6 1422/2/6 1425/2/6
f 1425/2/6 1417/2/6 1426/2/6
f 1423/2/6 1424/2/6 1431/2/6
f 1418/2/6 1423/2/6 1431/2/6
f 1431/2/6 1424/2/6 1432/2/6
f 1421/2/6 1425/2/6 1433/2/6
f 1425/4/6 1426/4/6 1434/4/6
f 1433/2/6 1425/2/6 1434/2/6
f 1434/4/6 1426/4/6 1435/4/6
f 1427/4/6 1428/4/6 1436/4/6
f 1436/4/6 1428/4/6 1437/4/6
f 1429/4/6 1430/4/6 1438/4/6
f 1438/4/6 1430/4/6 1439/4/6
f 1431/4/6 1432/4/6 1440/4/6
f 1432/2/6 1424/2/6 1441/2/6
f 1440/4/6 1432/4/6 1441/4/6
f 1441/2/6 1424/2/6 1442/2/6
f 1421/2/6 1433/2/6 1443/2/6
f 1433/4/6 1434/4/6 1444/4/6
f 1443/2/6 1433/2/6 1444/2/6
f 1444/4/6 1434/4/6 1445/4/6
f 1441/4/6 1442/4/6 1446/4/6
f 1442/2/6 1424/2/6 1447/2/6
f 1446/4/6 1442/4/6 1447/4/6
f 1447/2/6 1424/2/6 1448/2/6
f 1449/4/6 1450/4/6 1453/4/6
f 1453/4/6 1450/4/6 1454/4/6
f 1451/4/6 1452/4/6 1455/4/6
f 1455/4/6 1452/4/6 1456/4/6
f 1457/4/6 1458/4/6 1461/4/6
f 1461/4/6 1458/4/6 1462/4/6
f 1459/4/6 1460/4/6 1463/4/6
f 1463/4/6 1460/4/6 1464/4/6
f 1466/4/6 1467/4/6 1471/4/6
f 1465/2/6 1466/2/6 1471/2/6
f 1471/4/6 1467/4/6 1472/4/6
f 1468/4/6 1469/4/6 1479/4/6
f 1469/2/6 1470/2/6 1480/2/6
f 1479/4/6 1469/4/6 1480/4/6
f 1471/2/6 1472/2/6 1481/2/6
f 1472/4/6 1473/4/6 1481/4/6
f 1481/4/6 1473/4/6 1482/4/6
f 1474/4/6 1475/4/6 1483/4/6
f 1483/4/6 1475/4/6 1484/4/6
f 1476/4/6 1477/4/6 1485/4/6
f 1485/4/6 1477/4/6 1486/4/6
f 1478/4/6 1479/4/6 1487/4/6
f 1479/2/6 1480/2/6 1488/2/6
f 1487/4/6 1479/4/6 1488/4/6
f 1465/2/6 1471/2/6 1489/2/6
f 1481/2/6 1482/2/6 1489/2/6
f 1471/2/6 1481/2/6 1489/2/6
f 1489/2/6 1482/2/6 1490/2/6
f 1488/2/6 1480/2/6 1491/2/6
f 1487/2/6 1488/2/6 1491/2/6
f 1480/2/6 1470/2/6 1491/2/6
f 1491/2/6 1470/2/6 1492/2/6
f 1489/4/6 1490/4/6 1493/4/6
f 1490/2/6 1482/2/6 1494/2/6
f 1493/4/6 1490/4/6 1494/4/6
f 1494/2/6 1482/2/6 1495/2/6
f 1487/2/6 1491/2/6 1496/2/6
f 1491/4/6 1492/4/6 1497/4/6
f 1496/2/6 1491/2/6 1497/2/6
f 1497/4/6 1492/4/6 1498/4/6
f 1499/5/6 1500/5/6 1501/5/6
f 1501/5/6 1500/5/6 1502/5/6
f 1503/5/6 1504/5/6 1507/5/6
f 1507/5/6 1504/5/6 1508/5/6
f 1505/5/6 1506/5/6 1509/5/6
f 1509/5/6 1506/5/6 1510/5/6
f 1511/5/6 1512/5/6 1513/5/6
f 1513/5/6 1512/5/6 1514/5/6
f 1515/2/6 1516/2/6 1521/2/6
f 1516/5/6 1517/5/6 1522/5/6
f 1521/2/6 1516/2/6 1522/2/6
f 1522/5/6 1517/5/6 1523/5/6
f 1518/5/6 1519/5/6 1524/5/6
f 1519/2/6 1520/2/6 1525/2/6
f 1524/5/6 1519/5/6 1525/5/6
f 1525/2/6 1520/2/6 1526/2/6
f 1522/5/6 1523/5/6 1527/5/6
f 1521/5/6 1522/5/6 1527/5/6
f 1527/5/6 1523/5/6 1528/5/6
f 1528/5/6 1523/5/6 1529/5/6
f 1525/5/6 1526/5/6 1530/5/6
f 1524/5/6 1525/5/6 1530/5/6
f 1530/5/6 1526/5/6 1531/5/6
f 1531/5/6 1526/5/6 1532/5/6
f 1527/2/6 1528/2/6 1533/2/6
f 1528/5/6 1529/5/6 1534/5/6
f 1533/2/6 1528/2/6 1534/2/6
f 1534/5/6 1529/5/6 1535/5/6
f 1530/5/6 1531/5/6 1536/5/6
f 1531/2/6 1532/2/6 1537/2/6
f 1536/5/6 1531/5/6 1537/5/6
f 1537/2/6 1532/2/6 1538/2/6
f 1539/4/6 1540/4/6 1543/4/6
f 1540/5/6 1541/5/6 1544/5/6
f 1543/4/6 1540/4/6 1544/4/6
f 1541/4/6 1542/4/6 1545/4/6
f 1544/5/6 1541/5/6 1545/5/6
f 1545/4/6 1542/4/6 1546/4/6
f 1543/5/6 1544/5/6 1547/5/6
f 1544/5/6 1545/5/6 1547/5/6
f 1545/5/6 1546/5/6 1547/5/6
f 1547/5/6 1546/5/6 1548/5/6
f 1548/5/6 1546/5/6 1549/5/6
f 1549/5/6 1546/5/6 1550/5/6
f 1547/4/6 1548/4/6 1551/4/6
f 1548/5/6 1549/5/6 1552/5/6
f 1551/4/6 1548/4/6 1552/4/6
f 1549/4/6 1550/4/6 1553/4/6
f 1552/5/6 1549/5/6 1553/5/6
f 1553/4/6 1550/4/6 1554/4/6
